<svg width="28" height="28" viewBox="0 0 28 28" fill="none" xmlns="http://www.w3.org/2000/svg">
<rect width="28" height="28" rx="3" fill="#222533"/>
<path d="M19.9944 12.433C19.9944 12.022 19.9722 11.6054 19.9389 11.2C19.9 10.7609 19.7944 10.3387 19.4665 10.0178C19.1441 9.70253 18.7385 9.58994 18.3161 9.56179C17.7437 9.52238 17.1712 9.51675 16.5988 9.49986C16.5488 9.49986 16.5043 9.49986 16.4543 9.49986C16.4154 6.95521 14.4314 5.06925 12.1195 5.00169C9.67975 4.93413 7.57346 6.89892 7.54568 9.50549C7.42897 9.50549 7.32338 9.49986 7.21778 9.50549C6.63981 9.53364 6.06183 9.52801 5.48941 9.59557C4.68913 9.68564 4.2612 10.1022 4.11115 10.9017C4.04446 11.2732 4.01111 11.6561 4.01111 12.0332C4 13.649 4 15.2704 4 16.8861C4 17.9276 4 18.9691 4.16672 19.9993C4.2612 20.5848 4.42237 21.1478 4.77805 21.6376C5.25043 22.2907 5.91733 22.6172 6.67871 22.7748C7.50122 22.9493 8.3404 22.9831 9.17958 22.9887C10.7746 23 12.3751 23 13.9701 23C14.1202 23 14.2647 23 14.4147 23C14.6759 23 14.7926 22.6622 14.587 22.4933L14.5815 22.4877C13.2699 21.4293 12.0584 20.4497 10.8746 19.487C10.5856 19.2506 10.3466 18.9522 10.191 18.6201C10.0354 18.2935 9.95207 17.9276 9.95207 17.5673C9.95207 17.1113 10.0799 16.6665 10.3189 16.2893C10.5689 15.8953 10.9246 15.58 11.3581 15.3829C11.6804 15.2366 12.0139 15.1578 12.3529 15.1578H12.3585C12.6363 15.1578 12.9086 15.2084 13.1699 15.3098C13.4088 15.3998 13.6311 15.5293 13.8367 15.6982C14.3091 16.081 15.2484 16.8411 15.8597 17.3365C16.1764 17.5954 16.6377 17.5448 16.8989 17.2239C17.2768 16.7566 17.7937 16.1148 18.116 15.7151C18.6273 15.0846 19.1386 14.4484 19.6554 13.8066C19.8777 13.5308 20 13.1817 20 12.8214C19.9944 12.6919 19.9944 12.5624 19.9944 12.433ZM10.2188 13.542C10.2188 13.9417 9.82424 14.2514 9.33519 14.2514C8.83501 14.2514 8.44599 13.9417 8.44599 13.5364C8.44599 13.3056 8.44599 13.0748 8.44599 12.8439C8.44599 12.6131 8.44599 12.3823 8.44599 12.1515C8.45155 11.7461 8.84057 11.4309 9.33519 11.4365C9.8298 11.4365 10.2188 11.7518 10.2188 12.1458C10.2244 12.6075 10.2244 13.0748 10.2188 13.542ZM9.32963 9.49986C9.35742 8.55969 9.72977 7.80531 10.4911 7.28737C11.3915 6.67373 12.3473 6.62306 13.2977 7.15788C14.1869 7.65893 14.6259 8.46399 14.6704 9.50549H9.32963V9.49986ZM15.554 13.5364C15.554 13.9417 15.1594 14.257 14.6648 14.257C14.1702 14.257 13.7812 13.9417 13.7812 13.5364C13.7812 13.4238 13.7812 13.3056 13.7812 13.1873V12.8383C13.7812 12.6075 13.7812 12.3767 13.7812 12.1458C13.7867 11.7461 14.1758 11.4365 14.6648 11.4309C15.165 11.4309 15.554 11.7405 15.5596 12.1458C15.554 12.6075 15.554 13.0691 15.554 13.5364Z" fill="#71718C"/>
<path d="M12.174 17.6033C12.0609 17.7885 12 18.0054 12 18.2178C12 18.394 12.0392 18.5657 12.1131 18.7284C12.1871 18.8911 12.3002 19.0402 12.4482 19.1577C13.4141 19.962 14.38 20.7664 15.3503 21.5662C15.5243 21.7108 15.7114 21.8193 15.9072 21.8916C16.103 21.9639 16.3075 22 16.512 22C16.7817 22 17.0471 21.9367 17.2951 21.8102C17.5388 21.6882 17.765 21.5029 17.9478 21.268C19.3053 19.5373 20.6671 17.8111 22.029 16.085C22.599 15.362 23.1733 14.639 23.7389 13.9114C23.8173 13.8075 23.8869 13.6945 23.9304 13.5725C23.9782 13.4505 24 13.315 24 13.1794C24 13.0077 23.9608 12.836 23.8912 12.6778C23.7955 12.4654 23.6476 12.2892 23.4648 12.1762C23.2864 12.0587 23.0819 12 22.8731 12C22.7078 12 22.5381 12.0361 22.3814 12.1175C22.2248 12.1943 22.0812 12.3118 21.9637 12.4609C20.5758 14.2323 17.7999 17.7479 16.8035 19.0131C16.6033 19.2707 16.2379 19.3068 15.9898 19.1035C15.4025 18.6155 14.3843 17.7704 13.8361 17.3186C13.736 17.2372 13.6273 17.1695 13.5098 17.1243C13.3923 17.0791 13.2618 17.052 13.1356 17.052C12.9746 17.052 12.8136 17.0926 12.6657 17.1604C12.4612 17.2643 12.2872 17.418 12.174 17.6033Z" fill="#71718C"/>
</svg>
