<svg width="39" height="26" viewBox="0 0 39 26" fill="none" xmlns="http://www.w3.org/2000/svg">
<rect width="39" height="26" rx="4" fill="#747C90"/>
<path fill-rule="evenodd" clip-rule="evenodd" d="M26.5001 8H11.5001V10.5C12.4205 10.5 13.1667 11.2462 13.1667 12.1667V14.6667C13.1667 17.3333 13.1667 18.6666 13.9549 19.5268C14.0139 19.5911 14.0756 19.6529 14.14 19.7118C15.0001 20.5 16.3334 20.5 19.0001 20.5C21.6667 20.5 23 20.5 23.8602 19.7118C23.9245 19.6529 23.9863 19.5911 24.0452 19.5268C24.8334 18.6666 24.8334 17.3333 24.8334 14.6667V12.1667C24.8334 11.2462 25.5796 10.5 26.5001 10.5V8ZM17.9169 12.1666C17.9169 11.6143 17.4692 11.1666 16.9169 11.1666C16.3646 11.1666 15.9169 11.6143 15.9169 12.1666V16.3333C15.9169 16.8855 16.3646 17.3333 16.9169 17.3333C17.4692 17.3333 17.9169 16.8855 17.9169 16.3333V12.1666ZM22.0836 12.1666C22.0836 11.6143 21.6358 11.1666 21.0836 11.1666C20.5313 11.1666 20.0836 11.6143 20.0836 12.1666V16.3333C20.0836 16.8855 20.5313 17.3333 21.0836 17.3333C21.6358 17.3333 22.0836 16.8855 22.0836 16.3333V12.1666Z" fill="white"/>
<path d="M17.3903 5.80883C17.4852 5.72023 17.6945 5.64194 17.9855 5.5861C18.2766 5.53027 18.6333 5.5 19.0001 5.5C19.367 5.5 19.7237 5.53027 20.0147 5.5861C20.3058 5.64194 20.5151 5.72023 20.61 5.80883" stroke="white" stroke-width="2" stroke-linecap="round"/>
</svg>
