<svg width="18" height="17" viewBox="0 0 18 17" fill="none" xmlns="http://www.w3.org/2000/svg">
<path d="M7.16846 10.3607L7.16846 8.28854" stroke="#CCD2E3" stroke-width="2" stroke-linecap="round"/>
<path d="M10.0359 10.3607L10.0359 8.28854" stroke="#CCD2E3" stroke-width="2" stroke-linecap="round"/>
<path d="M2.15051 4.83498H15.0538V4.83498C14.914 4.83498 14.8441 4.83498 14.785 4.83848C13.7735 4.89835 12.9666 5.70528 12.9067 6.71682C12.9032 6.77585 12.9032 6.84574 12.9032 6.98552V9.81423C12.9032 11.6999 12.9032 12.6427 12.3174 13.2284C11.7316 13.8142 10.7888 13.8142 8.90321 13.8142H8.30105C6.41543 13.8142 5.47263 13.8142 4.88684 13.2284C4.30105 12.6427 4.30105 11.6999 4.30105 9.81423V6.98552C4.30105 6.84574 4.30105 6.77585 4.29756 6.71682C4.23769 5.70528 3.43076 4.89835 2.41922 4.83848C2.36019 4.83498 2.2903 4.83498 2.15051 4.83498V4.83498Z" stroke="#CCD2E3" stroke-width="2" stroke-linecap="round"/>
<path d="M7.21735 2.32811C7.29904 2.25467 7.47903 2.18978 7.72942 2.1435C7.97981 2.09722 8.28659 2.07214 8.6022 2.07214C8.9178 2.07214 9.22459 2.09722 9.47498 2.1435C9.72536 2.18978 9.90535 2.25467 9.98704 2.32811" stroke="#CCD2E3" stroke-width="2" stroke-linecap="round"/>
</svg>
