<svg width="19" height="18" viewBox="0 0 19 18" fill="none" xmlns="http://www.w3.org/2000/svg">
<path d="M10.7246 2.41418L11.3226 2.36499L11.322 2.35774L11.3212 2.35051L10.7246 2.41418ZM10.7021 2.23489L10.1127 2.34672L10.1127 2.34672L10.7021 2.23489ZM10.7246 2.41422L10.1266 2.46341L10.1272 2.47066L10.128 2.4779L10.7246 2.41422ZM10.7648 2.72616L10.1798 2.85926L10.1798 2.85927L10.7648 2.72616ZM12.2512 3.36375L12.5579 3.8794L12.5579 3.8794L12.2512 3.36375ZM12.5049 3.17789L12.8699 3.65408L12.8725 3.65214L12.5049 3.17789ZM12.5049 3.17788L12.1399 2.70169L12.1374 2.70363L12.5049 3.17788ZM12.5995 3.1054L12.2344 2.62921L12.2344 2.62921L12.5995 3.1054ZM12.8228 2.94405L12.52 2.42607L12.52 2.42607L12.8228 2.94405ZM13.9149 2.99806L14.2673 2.51248L14.2673 2.51248L13.9149 2.99806ZM14.1212 3.18064L14.5315 2.74291L14.5314 2.74279L14.1212 3.18064ZM14.1212 3.18065L13.7108 3.61837L13.7109 3.61849L14.1212 3.18065ZM14.7995 3.81621L14.3893 4.25406L14.3893 4.25406L14.7995 3.81621ZM14.859 3.87283L14.4331 4.29547L14.4331 4.29547L14.859 3.87283ZM14.9258 5.20716L15.3918 5.58513V5.58512L14.9258 5.20716ZM14.8723 5.26944L14.4203 4.87473L14.4143 4.88188L14.8723 5.26944ZM14.8723 5.26948L15.3243 5.66419L15.3303 5.65705L14.8723 5.26948ZM14.7783 5.37917L14.3065 5.00852L14.3065 5.00853L14.7783 5.37917ZM15.4198 6.98634L15.5067 6.39268L15.5067 6.39268L15.4198 6.98634ZM15.5635 7.00117L15.6195 6.40378L15.5635 7.00117ZM15.6817 7.01224L15.6257 7.60962H15.6257L15.6817 7.01224ZM15.8589 7.03204L15.9624 6.44103L15.9623 6.44103L15.8589 7.03204ZM16.6833 7.93727L17.2814 7.8894V7.8894L16.6833 7.93727ZM16.6833 9.11797L17.2814 9.1658L17.2814 9.1658L16.6833 9.11797ZM15.8588 10.0233L15.9622 10.6143L15.9622 10.6143L15.8588 10.0233ZM15.6818 10.0431L15.6258 9.44568H15.6258L15.6818 10.0431ZM15.5636 10.0541L15.6179 10.6517L15.6195 10.6515L15.5636 10.0541ZM15.5634 10.0542L15.5091 9.45662L15.5074 9.45678L15.5634 10.0542ZM15.4202 10.0689L15.3334 9.47524L15.3334 9.47524L15.4202 10.0689ZM14.7787 11.6762L15.2505 11.3055L15.2505 11.3055L14.7787 11.6762ZM14.8723 11.7855L14.4204 12.1802L14.4208 12.1806L14.8723 11.7855ZM14.8724 11.7857L15.3244 11.391L15.324 11.3905L14.8724 11.7857ZM14.9258 11.8478L14.4599 12.2258L14.4599 12.2258L14.9258 11.8478ZM14.859 13.1822L15.2848 13.6049L15.2848 13.6049L14.859 13.1822ZM14.7997 13.2387L14.3894 12.8009L14.3894 12.8009L14.7997 13.2387ZM14.1212 13.8744L13.711 13.4365L13.711 13.4365L14.1212 13.8744ZM13.9149 14.0569L13.5625 13.5714L13.5625 13.5714L13.9149 14.0569ZM12.8228 14.1109L13.1256 13.593L13.1256 13.593L12.8228 14.1109ZM12.5995 13.9496L12.9645 13.4734L12.9645 13.4734L12.5995 13.9496ZM12.5051 13.8773L12.1401 14.3534H12.1401L12.5051 13.8773ZM12.2511 13.6912L12.5578 13.1755L12.5578 13.1755L12.2511 13.6912ZM10.7649 14.3287L10.1798 14.1955L10.1798 14.1955L10.7649 14.3287ZM10.7246 14.641L10.128 14.5773L10.128 14.5774L10.7246 14.641ZM10.7021 14.8205L11.2916 14.9324L11.2916 14.9324L10.7021 14.8205ZM9.8008 15.6308L9.84948 16.2288H9.84948L9.8008 15.6308ZM8.40258 15.6308L8.45122 15.0327L8.45122 15.0327L8.40258 15.6308ZM7.50116 14.8204L8.09065 14.7086L8.09065 14.7086L7.50116 14.8204ZM7.47871 14.6411L8.07533 14.5774L8.07533 14.5774L7.47871 14.6411ZM7.43849 14.3291L8.02354 14.196L7.43849 14.3291ZM5.95216 13.6915L6.25891 14.2072L6.25891 14.2072L5.95216 13.6915ZM5.69838 13.8774L5.33335 13.4012L5.33107 13.403L5.69838 13.8774ZM5.69836 13.8774L6.06339 14.3536L6.06566 14.3519L5.69836 13.8774ZM5.60379 13.9499L5.23876 13.4737L5.22575 13.4837L5.21331 13.4944L5.60379 13.9499ZM5.60378 13.9499L5.9688 14.4261L5.98181 14.4161L5.99425 14.4055L5.60378 13.9499ZM5.38045 14.1113L5.07764 13.5933L5.07764 13.5933L5.38045 14.1113ZM4.28838 14.0573L3.93594 14.5429L3.93594 14.5429L4.28838 14.0573ZM4.08205 13.8747L4.49229 13.4368L4.49228 13.4368L4.08205 13.8747ZM3.40373 13.2391L3.81396 12.8013L3.81239 12.7998L3.40373 13.2391ZM3.40363 13.239L2.99339 13.6769L2.99497 13.6783L3.40363 13.239ZM3.34425 13.1825L3.77014 12.7599L3.77014 12.7599L3.34425 13.1825ZM3.27741 11.8482L3.7434 12.2261H3.7434L3.27741 11.8482ZM3.33093 11.7859L3.78286 12.1805L3.78286 12.1805L3.33093 11.7859ZM3.42496 11.6761L2.95312 11.3055L2.95312 11.3055L3.42496 11.6761ZM2.78347 10.069L2.69652 10.6626L2.69653 10.6626L2.78347 10.069ZM2.63972 10.0541L2.69569 9.45676H2.69569L2.63972 10.0541ZM2.52159 10.0431L2.57756 9.44569H2.57756L2.52159 10.0431ZM2.34443 10.0233L2.24097 10.6143L2.24098 10.6143L2.34443 10.0233ZM1.52003 9.11803L2.11812 9.07016V9.07016L1.52003 9.11803ZM1.51685 8.93979L0.916846 8.93979V8.93979H1.51685ZM1.51685 8.11562L0.916846 8.11562L1.51685 8.11562ZM1.52004 7.93721L0.921955 7.8893V7.8893L1.52004 7.93721ZM2.34435 7.03205L2.44785 7.62306L2.44785 7.62306L2.34435 7.03205ZM2.52166 7.01223L2.48003 6.41368L2.47285 6.41418L2.46569 6.41485L2.52166 7.01223ZM2.52169 7.01223L2.56332 7.61079L2.5705 7.61029L2.57766 7.60962L2.52169 7.01223ZM2.63975 7.00117L2.58378 6.40379L2.58378 6.40379L2.63975 7.00117ZM2.7839 6.9863L2.87093 7.57996L2.87093 7.57995L2.7839 6.9863ZM3.42534 5.37926L3.89723 5.0087L3.89722 5.0087L3.42534 5.37926ZM3.33106 5.26924L2.87829 5.66295L2.87912 5.6639L3.33106 5.26924ZM3.33104 5.26922L3.78383 4.87549L3.77949 4.8706L3.33104 5.26922ZM3.33104 5.26921L2.87908 5.66389L2.88259 5.66783L3.33104 5.26921ZM3.27738 5.20676L3.74341 4.82885L3.74341 4.82885L3.27738 5.20676ZM3.34422 3.87258L3.77014 4.29518L3.77014 4.29518L3.34422 3.87258ZM3.40385 3.8158L3.81408 4.25364L3.81408 4.25364L3.40385 3.8158ZM4.08209 3.18034L4.49232 3.61819L4.49232 3.61819L4.08209 3.18034ZM4.28841 2.99772L3.93598 2.51214L3.93598 2.51214L4.28841 2.99772ZM5.38049 2.94372L5.6833 2.42574L5.6833 2.42574L5.38049 2.94372ZM5.60382 3.10509L5.23879 3.58127L5.23879 3.58127L5.60382 3.10509ZM5.69856 3.17771L5.33353 3.6539H5.33353L5.69856 3.17771ZM5.95209 3.36341L5.64527 3.87903L5.64527 3.87903L5.95209 3.36341ZM7.43855 2.72577L6.85349 2.59273L6.85349 2.59273L7.43855 2.72577ZM7.47872 2.41411L8.07534 2.47779L8.07613 2.47036L8.07673 2.46292L7.47872 2.41411ZM7.47872 2.41409L6.88211 2.35045L6.88132 2.35785L6.88071 2.36527L7.47872 2.41409ZM7.47873 2.41405L6.88212 2.35037L6.88211 2.35041L7.47873 2.41405ZM7.50115 2.23497L8.09064 2.34675L8.09064 2.34675L7.50115 2.23497ZM8.40267 1.42455L8.35408 0.826518L8.40267 1.42455ZM9.80072 1.42455L9.84934 0.826528L9.80072 1.42455ZM11.3212 2.35051C11.3125 2.26889 11.3049 2.19282 11.2916 2.12306L10.1127 2.34672C10.1146 2.35672 10.1169 2.3736 10.128 2.47786L11.3212 2.35051ZM11.3226 2.36503L11.3226 2.36499L10.1266 2.46338L10.1266 2.46341L11.3226 2.36503ZM11.3499 2.59306C11.3502 2.5945 11.3476 2.58299 11.342 2.53844C11.3367 2.49517 11.3305 2.43756 11.3212 2.35053L10.128 2.4779C10.1438 2.6263 10.1567 2.75812 10.1798 2.85926L11.3499 2.59306ZM11.9444 2.84809C11.711 2.98692 11.4101 2.85783 11.3499 2.59306L10.1798 2.85927C10.4207 3.91838 11.6244 4.43472 12.5579 3.8794L11.9444 2.84809ZM12.1399 2.7017C12.0704 2.75495 12.0244 2.79019 11.9894 2.81611C11.9533 2.84281 11.9431 2.84885 11.9444 2.84809L12.5579 3.8794C12.6471 3.82637 12.7515 3.74488 12.8699 3.65408L12.1399 2.7017ZM12.1374 2.70363L12.1374 2.70364L12.8725 3.65214L12.8725 3.65213L12.1374 2.70363ZM12.2344 2.62921L12.1399 2.7017L12.87 3.65406L12.9645 3.58158L12.2344 2.62921ZM12.52 2.42607C12.4255 2.48128 12.3336 2.55321 12.2344 2.62921L12.9645 3.58158C13.0911 3.48457 13.112 3.46999 13.1256 3.46203L12.52 2.42607ZM14.2673 2.51248C13.7536 2.13959 13.068 2.10569 12.52 2.42607L13.1256 3.46203C13.2626 3.38193 13.434 3.39041 13.5624 3.48363L14.2673 2.51248ZM14.5314 2.74279C14.4402 2.65738 14.3559 2.57674 14.2673 2.51248L13.5624 3.48363C13.5752 3.49289 13.5946 3.50946 13.7109 3.61848L14.5314 2.74279ZM14.5315 2.74292L14.5315 2.74291L13.7108 3.61836L13.7108 3.61837L14.5315 2.74292ZM15.2098 3.37836L14.5314 2.7428L13.7109 3.61849L14.3893 4.25406L15.2098 3.37836ZM15.2849 3.45019C15.2624 3.42759 15.2371 3.40394 15.2098 3.37836L14.3893 4.25406C14.4242 4.28676 14.4299 4.29225 14.4331 4.29547L15.2849 3.45019ZM15.3918 5.58512C15.9065 4.95056 15.8604 4.03014 15.2849 3.45019L14.4331 4.29547C14.577 4.44046 14.5885 4.67056 14.4598 4.8292L15.3918 5.58512ZM15.3243 5.66411C15.3489 5.63592 15.3718 5.60985 15.3918 5.58513L14.4598 4.8292C14.457 4.83273 14.4518 4.83877 14.4204 4.87478L15.3243 5.66411ZM15.3303 5.65705L15.3304 5.65701L14.4143 4.88188L14.4143 4.88192L15.3303 5.65705ZM15.2501 5.74982C15.2495 5.75056 15.2529 5.74631 15.2667 5.7303C15.2799 5.71494 15.2976 5.69459 15.3242 5.66414L14.4204 4.87482C14.3749 4.92689 14.3349 4.97238 14.3065 5.00852L15.2501 5.74982ZM15.5067 6.39268C15.2026 6.34814 15.0603 5.99151 15.2501 5.74981L14.3065 5.00853C13.547 5.97535 14.1164 7.40186 15.3328 7.58001L15.5067 6.39268ZM15.6195 6.40378C15.5792 6.40001 15.5523 6.39749 15.5322 6.39545C15.5111 6.39332 15.5058 6.39254 15.5067 6.39268L15.3328 7.58001C15.3783 7.58667 15.4387 7.5921 15.5076 7.59855L15.6195 6.40378ZM15.7377 6.41486L15.6195 6.40378L15.5076 7.59855L15.6257 7.60962L15.7377 6.41486ZM15.9623 6.44103C15.8935 6.42898 15.8184 6.42242 15.7377 6.41486L15.6257 7.60962C15.7288 7.61928 15.7456 7.62133 15.7554 7.62306L15.9623 6.44103ZM17.2814 7.8894C17.2232 7.16242 16.6807 6.56679 15.9624 6.44103L15.7554 7.62306C15.935 7.6545 16.0706 7.80341 16.0852 7.98515L17.2814 7.8894ZM17.2865 8.11554C17.2865 8.0345 17.2869 7.95908 17.2814 7.8894L16.0852 7.98514C16.086 7.99513 16.0865 8.012 16.0865 8.11554H17.2865ZM17.2865 8.93986V8.11554H16.0865V8.93986H17.2865ZM17.2814 9.1658C17.2869 9.09618 17.2865 9.02083 17.2865 8.93986H16.0865C16.0865 9.04331 16.086 9.06016 16.0852 9.07014L17.2814 9.1658ZM15.9622 10.6143C16.6807 10.4886 17.2232 9.89287 17.2814 9.1658L16.0852 9.07014C16.0707 9.2519 15.935 9.40083 15.7554 9.43226L15.9622 10.6143ZM15.7378 10.6405C15.8184 10.6329 15.8934 10.6263 15.9622 10.6143L15.7554 9.43226C15.7456 9.43399 15.7288 9.43603 15.6258 9.44568L15.7378 10.6405ZM15.6195 10.6515L15.7378 10.6404L15.6258 9.44568L15.5076 9.45676L15.6195 10.6515ZM15.6177 10.6517L15.6179 10.6517L15.5092 9.45661L15.5091 9.45662L15.6177 10.6517ZM15.5071 10.6626C15.5061 10.6627 15.5114 10.662 15.5324 10.6598C15.5525 10.6578 15.5793 10.6553 15.6194 10.6515L15.5074 9.45678C15.4389 9.4632 15.3787 9.46861 15.3334 9.47524L15.5071 10.6626ZM15.2505 11.3055C15.0605 11.0638 15.2029 10.7071 15.5071 10.6626L15.3334 9.47524C14.1167 9.65325 13.5472 11.0801 14.3069 12.0469L15.2505 11.3055ZM15.3243 11.3909C15.2978 11.3605 15.2801 11.3403 15.2669 11.325C15.2532 11.309 15.2499 11.3048 15.2505 11.3055L14.3069 12.0469C14.3352 12.083 14.3751 12.1283 14.4204 12.1802L15.3243 11.3909ZM15.324 11.3905L15.3239 11.3904L14.4208 12.1806L14.4209 12.1808L15.324 11.3905ZM15.3918 11.4698C15.3717 11.4451 15.3489 11.4191 15.3244 11.391L14.4205 12.1803C14.4519 12.2162 14.457 12.2223 14.4599 12.2258L15.3918 11.4698ZM15.2848 13.6049C15.8605 13.0249 15.9066 12.1044 15.3918 11.4698L14.4599 12.2258C14.5886 12.3844 14.577 12.6146 14.4331 12.7596L15.2848 13.6049ZM15.2099 13.6766C15.2371 13.651 15.2624 13.6275 15.2848 13.6049L14.4331 12.7596C14.4299 12.7628 14.4242 12.7682 14.3894 12.8009L15.2099 13.6766ZM14.5314 14.3122L15.2099 13.6766L14.3894 12.8009L13.711 13.4365L14.5314 14.3122ZM14.2674 14.5425C14.3559 14.4783 14.4403 14.3976 14.5314 14.3122L13.711 13.4365C13.5946 13.5455 13.5752 13.5621 13.5625 13.5714L14.2674 14.5425ZM12.52 14.6289C13.068 14.9493 13.7536 14.9154 14.2674 14.5425L13.5625 13.5714C13.434 13.6646 13.2626 13.6731 13.1256 13.593L12.52 14.6289ZM12.2345 14.4258C12.3336 14.5018 12.4256 14.5737 12.52 14.6289L13.1256 13.593C13.112 13.585 13.0911 13.5704 12.9645 13.4734L12.2345 14.4258ZM12.1401 14.3534L12.2345 14.4258L12.9645 13.4734L12.8702 13.4011L12.1401 14.3534ZM11.9444 14.2069C11.9431 14.2061 11.9533 14.2122 11.9894 14.2389C12.0245 14.2649 12.0706 14.3001 12.1401 14.3534L12.8702 13.4011C12.7516 13.3102 12.647 13.2286 12.5578 13.1755L11.9444 14.2069ZM11.3499 14.4619C11.4102 14.1972 11.711 14.0681 11.9444 14.2069L12.5578 13.1755C11.6244 12.6204 10.4209 13.1366 10.1798 14.1955L11.3499 14.4619ZM11.3212 14.7047C11.3305 14.6176 11.3367 14.5599 11.3421 14.5166C11.3476 14.472 11.3502 14.4605 11.3499 14.4619L10.1798 14.1955C10.1568 14.2968 10.1439 14.4288 10.128 14.5773L11.3212 14.7047ZM11.2916 14.9324C11.3049 14.8626 11.3125 14.7864 11.3212 14.7047L10.128 14.5774C10.1169 14.6817 10.1146 14.6986 10.1127 14.7086L11.2916 14.9324ZM9.84948 16.2288C10.5671 16.1704 11.1574 15.6398 11.2916 14.9324L10.1127 14.7086C10.0791 14.8855 9.93153 15.0181 9.75212 15.0327L9.84948 16.2288ZM9.61995 16.2341C9.70212 16.2341 9.77864 16.2345 9.84948 16.2288L9.75212 15.0327C9.74196 15.0336 9.72492 15.0341 9.61995 15.0341V16.2341ZM8.58326 16.2341H9.61995V15.0341H8.58326V16.2341ZM8.35394 16.2288C8.42472 16.2345 8.50117 16.2341 8.58326 16.2341V15.0341C8.47839 15.0341 8.46137 15.0336 8.45122 15.0327L8.35394 16.2288ZM6.91167 14.9323C7.04589 15.6398 7.6362 16.1704 8.35395 16.2288L8.45122 15.0327C8.27178 15.0181 8.1242 14.8855 8.09065 14.7086L6.91167 14.9323ZM6.8821 14.7048C6.89081 14.7864 6.89844 14.8625 6.91168 14.9323L8.09065 14.7086C8.08875 14.6986 8.08645 14.6817 8.07533 14.5774L6.8821 14.7048ZM6.85344 14.4622C6.85312 14.4608 6.85573 14.4723 6.86127 14.5169C6.86664 14.5601 6.87281 14.6177 6.8821 14.7048L8.07533 14.5774C8.05948 14.429 8.04656 14.2972 8.02354 14.196L6.85344 14.4622ZM6.25891 14.2072C6.49228 14.0684 6.7932 14.1974 6.85344 14.4622L8.02354 14.196C7.78257 13.1369 6.57889 12.6206 5.64541 13.1759L6.25891 14.2072ZM6.06341 14.3536C6.13288 14.3003 6.17888 14.2651 6.21394 14.2392C6.25004 14.2125 6.26018 14.2064 6.25891 14.2072L5.64542 13.1759C5.55625 13.2289 5.45182 13.3104 5.33335 13.4012L6.06341 14.3536ZM6.06566 14.3519L6.06568 14.3518L5.33107 13.403L5.33105 13.403L6.06566 14.3519ZM5.96882 14.4261L6.06339 14.3536L5.33332 13.4012L5.23876 13.4737L5.96882 14.4261ZM5.99425 14.4055L5.99426 14.4055L5.21331 13.4944L5.2133 13.4944L5.99425 14.4055ZM5.68326 14.6293C5.77771 14.5741 5.86966 14.5021 5.9688 14.4261L5.23875 13.4737C5.11217 13.5708 5.09126 13.5853 5.07764 13.5933L5.68326 14.6293ZM3.93594 14.5429C4.44967 14.9157 5.13525 14.9496 5.68326 14.6293L5.07764 13.5933C4.94064 13.6734 4.76925 13.6649 4.64081 13.5717L3.93594 14.5429ZM3.67182 14.3125C3.763 14.3979 3.8474 14.4786 3.93594 14.5429L4.64082 13.5717C4.62805 13.5624 4.60867 13.5459 4.49229 13.4368L3.67182 14.3125ZM2.9935 13.677L3.67182 14.3125L4.49228 13.4368L3.81396 12.8013L2.9935 13.677ZM2.99497 13.6783L2.99506 13.6784L3.81239 12.7998L3.8123 12.7997L2.99497 13.6783ZM2.91836 13.6051C2.94078 13.6277 2.96616 13.6514 2.9934 13.6769L3.81387 12.8012C3.77902 12.7685 3.77333 12.7631 3.77014 12.7599L2.91836 13.6051ZM2.81142 11.4702C2.29673 12.1048 2.34284 13.0252 2.91837 13.6051L3.77014 12.7599C3.62626 12.6149 3.61473 12.3848 3.7434 12.2261L2.81142 11.4702ZM2.87899 11.3912C2.85439 11.4194 2.83148 11.4455 2.81142 11.4702L3.7434 12.2261C3.74626 12.2226 3.75139 12.2166 3.78286 12.1805L2.87899 11.3912ZM2.95312 11.3055C2.95371 11.3048 2.95037 11.309 2.93659 11.325C2.92337 11.3404 2.90559 11.3608 2.87899 11.3912L3.78286 12.1805C3.82834 12.1285 3.8684 12.0829 3.8968 12.0468L2.95312 11.3055ZM2.69653 10.6626C3.00064 10.7072 3.14299 11.0638 2.95312 11.3055L3.8968 12.0468C4.65624 11.08 4.08687 9.65345 2.87042 9.4753L2.69653 10.6626ZM2.58375 10.6515C2.62401 10.6553 2.65092 10.6578 2.6711 10.6599C2.69212 10.662 2.69746 10.6628 2.69652 10.6626L2.87043 9.4753C2.82493 9.46864 2.76453 9.46321 2.69569 9.45676L2.58375 10.6515ZM2.46562 10.6405L2.58375 10.6515L2.69569 9.45676L2.57756 9.44569L2.46562 10.6405ZM2.24098 10.6143C2.30982 10.6263 2.38495 10.6329 2.46562 10.6405L2.57756 9.44569C2.47449 9.43603 2.45774 9.43398 2.44787 9.43226L2.24098 10.6143ZM0.921946 9.1659C0.980131 9.89289 1.52258 10.4885 2.24097 10.6143L2.44788 9.43226C2.26828 9.40082 2.13267 9.25191 2.11812 9.07016L0.921946 9.1659ZM0.916846 8.93979C0.916846 9.02081 0.91637 9.09623 0.921946 9.1659L2.11812 9.07016C2.11732 9.06018 2.11685 9.04332 2.11685 8.93979H0.916846ZM0.916846 8.11562L0.916846 8.93979L2.11685 8.93979V8.11562L0.916846 8.11562ZM0.921955 7.8893C0.916369 7.95903 0.916846 8.03452 0.916846 8.11562L2.11685 8.11562C2.11685 8.01199 2.11732 7.99512 2.11812 7.98512L0.921955 7.8893ZM2.24086 6.44105C1.52256 6.56683 0.980187 7.1624 0.921955 7.8893L2.11812 7.98512C2.13268 7.8034 2.26827 7.65451 2.44785 7.62306L2.24086 6.44105ZM2.46569 6.41485C2.38496 6.42241 2.30976 6.42898 2.24085 6.44105L2.44785 7.62306C2.45772 7.62133 2.47447 7.61928 2.57764 7.60962L2.46569 6.41485ZM2.48005 6.41368L2.48003 6.41368L2.5633 7.61079L2.56332 7.61079L2.48005 6.41368ZM2.58378 6.40379L2.46571 6.41485L2.57766 7.60962L2.69572 7.59855L2.58378 6.40379ZM2.69688 6.39264C2.69782 6.39251 2.69245 6.39329 2.67137 6.39543C2.65114 6.39747 2.62416 6.4 2.58378 6.40379L2.69572 7.59855C2.76476 7.59209 2.82531 7.58664 2.87093 7.57996L2.69688 6.39264ZM2.95345 5.74983C3.14324 5.99152 3.00093 6.34807 2.69687 6.39264L2.87093 7.57995C4.08715 7.40166 4.65641 5.97546 3.89723 5.0087L2.95345 5.74983ZM2.87912 5.6639C2.90579 5.69443 2.92361 5.71485 2.93687 5.73026C2.95069 5.74632 2.95403 5.75058 2.95345 5.74983L3.89722 5.0087C3.86875 4.97244 3.82859 4.9268 3.78299 4.87458L2.87912 5.6639ZM2.87828 5.66293L2.87829 5.66294L3.78382 4.87553L3.78381 4.87551L2.87828 5.66293ZM2.88259 5.66783L2.8826 5.66784L3.77949 4.8706L3.77948 4.8706L2.88259 5.66783ZM2.81135 5.58467C2.83147 5.60947 2.85444 5.63563 2.8791 5.66387L3.78297 4.87456C3.75142 4.83842 3.74628 4.83238 3.74341 4.82885L2.81135 5.58467ZM2.91829 3.44999C2.34291 4.02991 2.29681 4.95015 2.81135 5.58467L3.74341 4.82885C3.61477 4.67022 3.6263 4.44016 3.77014 4.29518L2.91829 3.44999ZM2.99362 3.37795C2.96625 3.40359 2.94078 3.42732 2.91829 3.44999L3.77014 4.29518C3.77335 4.29195 3.77907 4.28645 3.81408 4.25364L2.99362 3.37795ZM3.67186 2.74249L2.99362 3.37795L3.81408 4.25364L4.49232 3.61819L3.67186 2.74249ZM3.93598 2.51214C3.84744 2.57641 3.76303 2.65707 3.67186 2.74249L4.49232 3.61819C4.60871 3.50914 4.62809 3.49257 4.64085 3.4833L3.93598 2.51214ZM5.6833 2.42574C5.13528 2.10537 4.44971 2.13928 3.93598 2.51214L4.64085 3.4833C4.76928 3.39009 4.94068 3.38161 5.07768 3.4617L5.6833 2.42574ZM5.96885 2.6289C5.86969 2.55289 5.77775 2.48095 5.6833 2.42574L5.07768 3.4617C5.09129 3.46966 5.11221 3.48424 5.23879 3.58127L5.96885 2.6289ZM6.06359 2.70153L5.96885 2.6289L5.23879 3.58127L5.33353 3.6539L6.06359 2.70153ZM6.2589 2.84779C6.26017 2.84854 6.25003 2.84251 6.21397 2.81584C6.17895 2.78993 6.13299 2.75473 6.06359 2.70153L5.33353 3.6539C5.45188 3.74463 5.55621 3.82603 5.64527 3.87903L6.2589 2.84779ZM6.85349 2.59273C6.79327 2.85755 6.49229 2.98666 6.2589 2.84779L5.64527 3.87903C6.57883 4.43453 7.78274 3.9181 8.02362 2.85881L6.85349 2.59273ZM6.88211 2.35043C6.87283 2.43738 6.86667 2.49493 6.8613 2.53816C6.85577 2.58267 6.85316 2.59417 6.85349 2.59273L8.02362 2.85882C8.0466 2.75776 8.05951 2.62606 8.07534 2.47779L6.88211 2.35043ZM6.88071 2.36527L6.88071 2.36529L8.07673 2.46292L8.07674 2.46291L6.88071 2.36527ZM6.88211 2.35041L6.88211 2.35045L8.07534 2.47773L8.07535 2.47769L6.88211 2.35041ZM6.91165 2.12319C6.89844 2.19287 6.89082 2.26886 6.88212 2.35037L8.07534 2.47773C8.08646 2.37359 8.08875 2.35674 8.09064 2.34675L6.91165 2.12319ZM8.35408 0.826518C7.63623 0.884836 7.04582 1.41558 6.91165 2.12319L8.09064 2.34675C8.12419 2.16984 8.27179 2.03716 8.45125 2.02258L8.35408 0.826518ZM8.58316 0.821265C8.50115 0.821265 8.42478 0.820775 8.35408 0.826518L8.45125 2.02258C8.46139 2.02175 8.4784 2.02126 8.58316 2.02126V0.821265ZM9.62006 0.821265H8.58316V2.02126H9.62006V0.821265ZM9.84934 0.826528C9.77858 0.820774 9.70214 0.821265 9.62006 0.821265V2.02126C9.72491 2.02126 9.74194 2.02176 9.75209 2.02258L9.84934 0.826528ZM11.2916 2.12307C11.1574 1.41556 10.5671 0.884893 9.84934 0.826528L9.75209 2.02258C9.93153 2.03717 10.0791 2.16984 10.1127 2.34672L11.2916 2.12307ZM11.5356 8.52766C11.5356 9.72996 10.4833 10.7702 9.10165 10.7702V11.9702C11.0712 11.9702 12.7356 10.4652 12.7356 8.52766H11.5356ZM9.10165 6.2851C10.4833 6.2851 11.5356 7.32535 11.5356 8.52766H12.7356C12.7356 6.59016 11.0712 5.0851 9.10165 5.0851V6.2851ZM6.66773 8.52766C6.66773 7.32535 7.72001 6.2851 9.10165 6.2851V5.0851C7.13212 5.0851 5.46773 6.59016 5.46773 8.52766H6.66773ZM9.10165 10.7702C7.72001 10.7702 6.66773 9.72996 6.66773 8.52766H5.46773C5.46773 10.4652 7.13212 11.9702 9.10165 11.9702V10.7702Z" fill="#747C90"/>
</svg>
