<svg width="37" height="37" viewBox="0 0 37 37" fill="none" xmlns="http://www.w3.org/2000/svg">
<rect width="37" height="37" rx="6" fill="#171823"/>
<path d="M27.2766 17.2596C27.2766 16.8029 27.2526 16.34 27.2166 15.8896C27.1746 15.4016 27.0605 14.9324 26.7064 14.5759C26.3582 14.2255 25.92 14.1004 25.4637 14.0691C24.8454 14.0253 24.2271 14.0191 23.6088 14.0003C23.5548 14.0003 23.5068 14.0003 23.4527 14.0003C23.4107 11.1727 21.2676 9.07695 18.7704 9.00188C16.1351 8.92681 13.8599 11.1101 13.8299 14.0066C13.7039 14.0066 13.5898 14.0003 13.4757 14.0066C12.8514 14.0378 12.2271 14.0316 11.6088 14.1067C10.7444 14.2068 10.2821 14.6697 10.1201 15.558C10.048 15.9709 10.012 16.3963 10.012 16.8155C10 18.6109 10 20.4126 10 22.208C10 23.3653 10 24.5227 10.1801 25.6675C10.2821 26.3181 10.4562 26.9437 10.8404 27.488C11.3507 28.2136 12.071 28.5765 12.8934 28.7516C13.7819 28.9456 14.6883 28.9831 15.5948 28.9894C17.3177 29.0019 19.0465 29.0019 20.7694 29.0019C20.9315 29.0019 21.0875 29.0019 21.2496 29.0019C21.5318 29.0019 21.6578 28.6265 21.4357 28.4389L21.4297 28.4326C20.013 27.2565 18.7044 26.168 17.4257 25.0982C17.1136 24.8355 16.8554 24.5039 16.6873 24.1348C16.5193 23.772 16.4292 23.3653 16.4292 22.965C16.4292 22.4582 16.5673 21.964 16.8254 21.5449C17.0955 21.107 17.4797 20.7566 17.948 20.5377C18.2961 20.375 18.6563 20.2875 19.0225 20.2875H19.0285C19.3287 20.2875 19.6228 20.3438 19.905 20.4564C20.1631 20.5565 20.4032 20.7003 20.6253 20.888C21.1356 21.3134 22.1501 22.158 22.8104 22.7085C23.1526 22.9962 23.6508 22.9399 23.933 22.5834C24.3412 22.0641 24.8995 21.351 25.2476 20.9068C25.7999 20.2061 26.3522 19.4992 26.9105 18.786C27.1506 18.4795 27.2826 18.0916 27.2826 17.6913C27.2766 17.5474 27.2766 17.4035 27.2766 17.2596ZM16.7174 18.492C16.7174 18.9362 16.2911 19.2803 15.7629 19.2803C15.2226 19.2803 14.8024 18.9362 14.8024 18.4858C14.8024 18.2293 14.8024 17.9728 14.8024 17.7163C14.8024 17.4598 14.8024 17.2033 14.8024 16.9468C14.8084 16.4964 15.2286 16.1461 15.7629 16.1523C16.2971 16.1523 16.7174 16.5027 16.7174 16.9406C16.7234 17.4536 16.7234 17.9728 16.7174 18.492ZM15.7569 14.0003C15.7869 12.9556 16.1891 12.1173 17.0115 11.5418C17.984 10.8599 19.0165 10.8036 20.043 11.3979C21.0035 11.9546 21.4777 12.8492 21.5258 14.0066H15.7569V14.0003ZM22.4802 18.4858C22.4802 18.9362 22.054 19.2865 21.5198 19.2865C20.9855 19.2865 20.5653 18.9362 20.5653 18.4858C20.5653 18.3607 20.5653 18.2293 20.5653 18.0979V17.71C20.5653 17.4536 20.5653 17.1971 20.5653 16.9406C20.5713 16.4964 20.9915 16.1523 21.5198 16.1461C22.06 16.1461 22.4802 16.4901 22.4862 16.9406C22.4802 17.4536 22.4802 17.9665 22.4802 18.4858Z" fill="#1556EE"/>
<path d="M19.1885 23.1655C19.066 23.3693 19 23.6079 19 23.8415C19 24.0354 19.0424 24.2243 19.1226 24.4032C19.2027 24.5822 19.3252 24.7462 19.4855 24.8754C20.5319 25.7602 21.5783 26.645 22.6294 27.5248C22.818 27.6838 23.0207 27.8031 23.2328 27.8827C23.4449 27.9622 23.6664 28.002 23.888 28.002C24.1802 28.002 24.4677 27.9324 24.7364 27.7932C25.0004 27.659 25.2455 27.4552 25.4434 27.1967C26.9141 25.293 28.3894 23.3942 29.8648 21.4954C30.4822 20.7001 31.1044 19.9048 31.7172 19.1045C31.802 18.9902 31.8774 18.8659 31.9246 18.7317C31.9764 18.5975 32 18.4484 32 18.2993C32 18.1104 31.9576 17.9215 31.8822 17.7475C31.7785 17.5139 31.6182 17.3201 31.4202 17.1958C31.227 17.0666 31.0054 17.002 30.7792 17.002C30.6001 17.002 30.4162 17.0417 30.2466 17.1312C30.0769 17.2157 29.9213 17.3449 29.7941 17.509C28.2904 19.4574 25.2832 23.3246 24.2038 24.7164C23.9869 24.9997 23.591 25.0395 23.3223 24.8158C22.686 24.279 21.583 23.3494 20.9891 22.8524C20.8807 22.7629 20.7629 22.6884 20.6356 22.6386C20.5083 22.5889 20.3669 22.5591 20.2302 22.5591C20.0558 22.5591 19.8814 22.6039 19.7212 22.6784C19.4996 22.7927 19.3111 22.9617 19.1885 23.1655Z" fill="#50FAFA"/>
<path d="M8.29352 18.7061C7.07102 18.3975 6.10964 17.4361 5.80105 16.2136L5.75358 16L5.7061 16.2136C5.39751 17.4361 4.43613 18.3975 3.21364 18.7061L3 18.7536L3.21364 18.8011C4.43613 19.1096 5.39751 20.071 5.7061 21.2935L5.75358 21.5072L5.80105 21.2935C6.10964 20.071 7.07102 19.1096 8.29352 18.8011L8.50716 18.7536L8.29352 18.7061Z" fill="#FFE620"/>
<path d="M8.39945 10.4034C7.52115 10.1897 6.84463 9.50134 6.61912 8.62305L6.58351 8.46875L6.54791 8.62305C6.3224 9.50134 5.64587 10.1779 4.76758 10.4034L4.61328 10.439L4.76758 10.4746C5.64587 10.6882 6.3224 11.3766 6.54791 12.2549L6.58351 12.4092L6.61912 12.2549C6.84463 11.3766 7.52115 10.7001 8.39945 10.4746L8.55375 10.439L8.39945 10.4034Z" fill="#FFE620"/>
<path d="M34.9761 22.0296C34.0503 21.8041 33.3382 21.0801 33.1008 20.1543L33.0652 20L33.0296 20.1543C32.8041 21.0801 32.0801 21.7922 31.1543 22.0296L31 22.0652L31.1543 22.1008C32.0801 22.3263 32.7922 23.0503 33.0296 23.9761L33.0652 24.1304L33.1008 23.9761C33.3263 23.0503 34.0503 22.3382 34.9761 22.1008L35.1304 22.0652L34.9761 22.0296Z" fill="#5D8EF9"/>
<path d="M28.4508 7.26695C27.4301 7.00584 26.623 6.21062 26.3619 5.17803L26.3144 5L26.267 5.17803C26.0058 6.19876 25.2106 7.00584 24.178 7.26695L24 7.31443L24.178 7.3619C25.2106 7.62302 26.0058 8.41823 26.267 9.45082L26.3144 9.62886L26.3619 9.45082C26.623 8.4301 27.4182 7.62302 28.4508 7.3619L28.6289 7.31443L28.4508 7.26695Z" fill="#8C7BFD"/>
</svg>
