<svg width="19" height="19" viewBox="0 0 19 19" fill="none" xmlns="http://www.w3.org/2000/svg">
<path d="M9.10179 12.1057V10.7514C9.10179 10.5569 9.10179 10.4597 9.05062 10.3925C9.03705 10.3747 9.02114 10.3588 9.00333 10.3452C8.9362 10.2941 8.83897 10.2941 8.6445 10.2941C7.33551 10.2941 6.68102 10.2941 6.38102 9.92985C6.30381 9.83612 6.24432 9.7291 6.20547 9.61405C6.05448 9.16699 6.39996 8.61111 7.09091 7.49935L8.17712 5.7516C8.55173 5.14886 8.73903 4.84749 8.92041 4.89926C9.10179 4.95104 9.10179 5.30587 9.10179 6.01553V7.36985C9.10179 7.56432 9.10179 7.66155 9.15296 7.72868C9.16653 7.74649 9.18244 7.7624 9.20025 7.77597C9.26738 7.82714 9.36462 7.82714 9.55909 7.82714C10.8681 7.82714 11.5226 7.82714 11.8226 8.19136C11.8998 8.2851 11.9593 8.39211 11.9981 8.50716C12.1491 8.95422 11.8036 9.51011 11.1127 10.6219L10.0265 12.3696C9.65186 12.9724 9.46456 13.2737 9.28317 13.2219C9.10179 13.1702 9.10179 12.8153 9.10179 12.1057Z" fill="#747C90"/>
<ellipse cx="9.10172" cy="9.06062" rx="6.82633" ry="6.79548" stroke="#747C90" stroke-width="1.2"/>
</svg>
