<svg width="16" height="14" viewBox="0 0 16 14" fill="none" xmlns="http://www.w3.org/2000/svg">
<path d="M9.6875 1H6.3125C3.92601 1 2.73277 1 1.99139 1.75315C1.25 2.50631 1.25 3.71849 1.25 6.14286V7.85714C1.25 10.2815 1.25 11.4937 1.99139 12.2468C2.73277 13 3.92601 13 6.3125 13H9.6875C12.074 13 13.2672 13 14.0086 12.2468C14.75 11.4937 14.75 10.2815 14.75 7.85714V6.14286C14.75 3.71849 14.75 2.50631 14.0086 1.75315C13.2672 1 12.074 1 9.6875 1Z" stroke="#50FAFA" stroke-width="2"/>
<path d="M13.25 10H12.5C12.0341 10 11.8011 10 11.6173 9.92388C11.3723 9.82239 11.1776 9.62771 11.0761 9.38268C11 9.19891 11 8.96594 11 8.5C11 8.03406 11 7.80109 11.0761 7.61732C11.1776 7.37229 11.3723 7.17761 11.6173 7.07612C11.8011 7 12.0341 7 12.5 7H13.25C13.7159 7 13.9489 7 14.1327 7.07612C14.3777 7.17761 14.5724 7.37229 14.6739 7.61732C14.75 7.80109 14.75 8.03406 14.75 8.5C14.75 8.96594 14.75 9.19891 14.6739 9.38268C14.5724 9.62771 14.3777 9.82239 14.1327 9.92388C13.9489 10 13.7159 10 13.25 10Z" stroke="#50FAFA" stroke-width="2"/>
<path d="M4.25 6.88147L8.67414 6.88147" stroke="#50FAFA" stroke-width="2" stroke-linecap="round" stroke-linejoin="round"/>
<path d="M6.46191 4.75L6.46191 9.01285" stroke="#50FAFA" stroke-width="2" stroke-linecap="round" stroke-linejoin="round"/>
</svg>
