<svg width="28" height="29" viewBox="0 0 28 29" fill="none" xmlns="http://www.w3.org/2000/svg">
<path d="M0.000244141 0.441162H28.0002V23.5258C28.0002 26.2872 25.7617 28.5258 23.0002 28.5258H5.00024C2.23882 28.5258 0.000244141 26.2872 0.000244141 23.5258V0.441162Z" fill="#222533"/>
<path d="M15.5332 8.46533H12.12C9.70652 8.46533 8.49978 8.46533 7.75001 9.22585C7.00024 9.98637 7.00024 11.2104 7.00024 13.6585V15.3895C7.00024 17.8376 7.00024 19.0617 7.75001 19.8222C8.49978 20.5827 9.70652 20.5827 12.12 20.5827H15.5332C17.9466 20.5827 19.1534 20.5827 19.9031 19.8222C20.6529 19.0617 20.6529 17.8376 20.6529 15.3895V13.6585C20.6529 11.2104 20.6529 9.98637 19.9031 9.22585C19.1534 8.46533 17.9466 8.46533 15.5332 8.46533Z" stroke="#71718C" stroke-width="1.2"/>
<path d="M10.0334 11.4944H12.3089" stroke="#71718C" stroke-width="1.2" stroke-linecap="round"/>
<path d="M19.1379 17.5537H17.6164C17.1367 17.5537 16.8968 17.5537 16.7084 17.4731C16.4719 17.3719 16.2835 17.1835 16.1823 16.947C16.1017 16.7586 16.1017 16.5188 16.1017 16.039C16.1017 15.5593 16.1017 15.3195 16.1823 15.1311C16.2835 14.8946 16.4719 14.7061 16.7084 14.605C16.8968 14.5244 17.1367 14.5244 17.6164 14.5244H19.1379C19.6176 14.5244 19.8575 14.5244 20.0459 14.605C20.2824 14.7061 20.4708 14.8946 20.572 15.1311C20.6526 15.3195 20.6526 15.5593 20.6526 16.039C20.6526 16.5188 20.6526 16.7586 20.572 16.947C20.4708 17.1835 20.2824 17.3719 20.0459 17.4731C19.8575 17.5537 19.6176 17.5537 19.1379 17.5537Z" stroke="#71718C" stroke-width="1.2"/>
</svg>
