<svg width="25" height="24" viewBox="0 0 25 24" fill="none" xmlns="http://www.w3.org/2000/svg">
<path d="M14.1533 7V7C14.1533 6.06812 14.1533 5.60218 14.0011 5.23463C13.7981 4.74458 13.4087 4.35523 12.9187 4.15224C12.5511 4 12.0852 4 11.1533 4H8.15332C6.2677 4 5.32489 4 4.73911 4.58579C4.15332 5.17157 4.15332 6.11438 4.15332 8V11C4.15332 11.9319 4.15332 12.3978 4.30556 12.7654C4.50855 13.2554 4.8979 13.6448 5.38795 13.8478C5.7555 14 6.22144 14 7.15332 14V14" stroke="#CCD2E3" stroke-width="2"/>
<rect x="10.1533" y="10" width="10" height="10" rx="2" stroke="#CCD2E3" stroke-width="2"/>
</svg>
