<svg width="11" height="17" viewBox="0 0 11 17" fill="none" xmlns="http://www.w3.org/2000/svg">
<path d="M5.14183 0L5.02951 0.36463V10.9453L5.14183 11.0524L10.2841 8.14928L5.14183 0Z" fill="url(#paint0_linear_16_2138)"/>
<path d="M5.14282 0L0.000549316 8.14927L5.14282 11.0524V5.91689V0Z" fill="url(#paint1_linear_16_2138)"/>
<path d="M5.14197 11.9822L5.07867 12.0559V15.825L5.14197 16.0015L10.2873 9.08057L5.14197 11.9822Z" fill="url(#paint2_linear_16_2138)"/>
<path d="M5.14227 16.0016V11.9822L0 9.08057L5.14227 16.0016Z" fill="url(#paint3_linear_16_2138)"/>
<path d="M5.14178 11.0525L10.284 8.14937L5.14178 5.91699V11.0525Z" fill="url(#paint4_linear_16_2138)"/>
<path d="M0 8.14937L5.14219 11.0525V5.91699L0 8.14937Z" fill="url(#paint5_linear_16_2138)"/>
<defs>
<linearGradient id="paint0_linear_16_2138" x1="7.65681" y1="0" x2="7.65681" y2="11.0524" gradientUnits="userSpaceOnUse">
<stop stop-color="#FA93EF"/>
<stop offset="1" stop-color="#FE10E6" stop-opacity="0.25"/>
</linearGradient>
<linearGradient id="paint1_linear_16_2138" x1="2.57168" y1="0" x2="2.57168" y2="11.0524" gradientUnits="userSpaceOnUse">
<stop stop-color="#FA93EF"/>
<stop offset="1" stop-color="#FE10E6" stop-opacity="0.25"/>
</linearGradient>
<linearGradient id="paint2_linear_16_2138" x1="7.683" y1="9.08057" x2="7.683" y2="16.0015" gradientUnits="userSpaceOnUse">
<stop stop-color="#FF29EA"/>
<stop offset="1" stop-color="#DE1FCB" stop-opacity="0.26"/>
</linearGradient>
<linearGradient id="paint3_linear_16_2138" x1="2.57114" y1="9.08057" x2="2.57114" y2="16.0016" gradientUnits="userSpaceOnUse">
<stop stop-color="#FF29EA"/>
<stop offset="1" stop-color="#DE1FCB" stop-opacity="0.26"/>
</linearGradient>
<linearGradient id="paint4_linear_16_2138" x1="7.71288" y1="5.91699" x2="7.71288" y2="11.0525" gradientUnits="userSpaceOnUse">
<stop stop-color="#FA93EF"/>
<stop offset="1" stop-color="#FE10E6" stop-opacity="0.25"/>
</linearGradient>
<linearGradient id="paint5_linear_16_2138" x1="2.57109" y1="5.91699" x2="2.57109" y2="11.0525" gradientUnits="userSpaceOnUse">
<stop stop-color="#FA93EF"/>
<stop offset="1" stop-color="#FE10E6" stop-opacity="0.25"/>
</linearGradient>
</defs>
</svg>
