<svg width="34" height="40" viewBox="0 0 34 40" fill="none" xmlns="http://www.w3.org/2000/svg">
<g clip-path="url(#clip0_0_1149)">
<path d="M33.6584 6.92547C33.2237 6.18012 32.6027 5.59006 31.9196 5.06211C30.5845 4.03727 29.1251 3.32298 27.5726 2.73292C26.4548 2.29814 25.337 1.95652 24.1881 1.86335C24.0018 1.86335 23.9087 1.77019 23.7845 1.64596C23.0703 0.621118 21.9525 0 20.7416 0C15.1836 0 9.62557 0 4.09863 0C3.85023 0 3.60183 0 3.35342 0.0310559C1.24201 0.403727 0 1.89441 0 4.00621C0 13.913 0 32.205 0 38.1366C0 39.1925 0.838356 40.0311 1.89406 40.0311H22.6046C23.6603 40.0311 24.4986 39.1925 24.4986 38.1366V29.8447C24.5607 29.8758 24.6228 29.9068 24.6539 29.9379C26.2374 30.8696 27.9452 31.2112 29.7461 30.9317C30.895 30.7453 31.8886 30.3106 32.6959 29.472C33.6585 28.4783 34 27.236 34 25.9006C34 20.0311 34 14.1925 34 8.32298C34 7.82609 33.9068 7.36025 33.6584 6.92547ZM19.3443 26.118H17.4502C16.8913 26.118 16.4256 25.6522 16.4256 25.0932V20.2795C16.4256 19.7205 16.8913 19.2547 17.4502 19.2547H19.3443C19.9032 19.2547 20.3689 19.7205 20.3689 20.2795V25.0932C20.3379 25.6522 19.9032 26.118 19.3443 26.118ZM21.642 13.0435C21.642 13.9441 21.1452 14.6273 20.3069 14.8137C20.1516 14.8447 19.9963 14.8447 19.8411 14.8447C17.295 14.8447 14.7799 14.8447 12.2338 14.8447C10.9607 14.8447 9.68767 14.8447 8.41461 14.8447C7.14155 14.8447 5.86849 14.8447 4.59543 14.8447C3.75708 14.8447 3.16712 14.472 2.91872 13.7267C2.82557 13.5093 2.79452 13.2609 2.79452 13.0435C2.79452 10.1863 2.79452 7.32919 2.79452 4.44099C2.79452 3.50932 3.50868 2.79503 4.44018 2.73292C4.53333 2.73292 4.62648 2.73292 4.75069 2.73292C9.71872 2.73292 14.7178 2.76397 19.6858 2.73292C20.8037 2.73292 21.642 3.50932 21.642 4.68944C21.642 7.51553 21.6731 10.2795 21.642 13.0435ZM31.1434 25.9317C31.1434 27.205 30.3361 28.0435 29.063 28.1677C27.5105 28.2919 26.2064 27.795 25.1817 26.677C24.716 26.1801 24.4676 25.5901 24.4676 24.8758C24.4676 18.2919 24.4676 11.7391 24.4676 5.15528C24.4676 5.03106 24.4676 4.93789 24.4676 4.7205C25.3059 4.96894 26.0511 5.21739 26.8274 5.46584C26.7342 6.14907 26.6411 6.77019 26.61 7.3913C26.579 8.13665 26.5479 8.91304 26.6721 9.65838C26.8274 10.8696 27.6347 11.677 28.5662 12.3602C29.3425 12.9193 30.1498 13.4472 30.926 13.9752C31.0813 14.0683 31.1434 14.1615 31.1434 14.3478C31.1434 18.1988 31.1434 22.0497 31.1434 25.9317ZM31.2055 10.6211C31.1744 10.6211 31.1434 10.6522 31.1123 10.6522C30.6155 10.3106 30.1187 10 29.7151 9.53416C29.4667 9.25466 29.3735 8.88199 29.3735 8.54037C29.4046 7.98137 29.4667 7.45342 29.5288 6.8323C30.0877 7.20497 30.6155 7.45342 30.9571 7.91925C31.1123 8.13665 31.1744 8.4472 31.2055 8.69565C31.2365 9.34783 31.2055 9.96894 31.2055 10.6211Z" fill="#CCD2E3"/>
</g>
<defs>
<clipPath id="clip0_0_1149">
<rect width="34" height="40" fill="white"/>
</clipPath>
</defs>
</svg>
