<svg width="25" height="24" viewBox="0 0 25 24" fill="none" xmlns="http://www.w3.org/2000/svg">
<mask id="path-1-outside-1_0_1788" maskUnits="userSpaceOnUse" x="3.15332" y="4" width="17" height="17" fill="black">
<rect fill="white" x="3.15332" y="4" width="17" height="17"/>
<path d="M13.7391 7.41421L6.54503 14.6083C6.35038 14.8029 6.25306 14.9003 6.18608 15.0186C6.11911 15.1368 6.08573 15.2704 6.01896 15.5374L5.35543 18.1915C5.26518 18.5526 5.22005 18.7331 5.32014 18.8332C5.42022 18.9333 5.60074 18.8881 5.96176 18.7979L5.96177 18.7979L8.61589 18.1344C8.88295 18.0676 9.01648 18.0342 9.13477 17.9672C9.25306 17.9003 9.35038 17.8029 9.54503 17.6083L16.7391 10.4142L16.7391 10.4142C17.4058 9.74755 17.7391 9.41421 17.7391 9C17.7391 8.58579 17.4058 8.25245 16.7391 7.58579L16.5675 7.41421C15.9009 6.74755 15.5675 6.41421 15.1533 6.41421C14.7391 6.41421 14.4058 6.74755 13.7391 7.41421Z"/>
</mask>
<path d="M6.54503 14.6083L7.95925 16.0225L7.95925 16.0225L6.54503 14.6083ZM13.7391 7.41421L12.3249 6L12.3249 6L13.7391 7.41421ZM16.5675 7.41421L15.1533 8.82843L15.1533 8.82843L16.5675 7.41421ZM16.7391 7.58579L18.1533 6.17157L18.1533 6.17157L16.7391 7.58579ZM16.7391 10.4142L18.1533 11.8284L16.7391 10.4142ZM9.54503 17.6083L8.13082 16.1941L8.13082 16.1941L9.54503 17.6083ZM6.01896 15.5374L7.95925 16.0225L7.95925 16.0225L6.01896 15.5374ZM5.35543 18.1915L3.41515 17.7065H3.41515L5.35543 18.1915ZM5.96177 18.7979L5.4767 16.8576L5.38956 16.8794L5.30473 16.9089L5.96177 18.7979ZM8.61589 18.1344L8.13083 16.1941L8.13082 16.1941L8.61589 18.1344ZM5.32014 18.8332L6.73435 17.419L6.73435 17.419L5.32014 18.8332ZM5.96176 18.7979L6.44683 20.7382L6.53397 20.7164L6.61881 20.6869L5.96176 18.7979ZM9.13477 17.9672L8.14937 16.2268L8.14937 16.2268L9.13477 17.9672ZM16.7391 10.4142L18.1533 11.8284L18.1533 11.8284L16.7391 10.4142ZM6.18608 15.0186L4.44568 14.0332L4.44568 14.0332L6.18608 15.0186ZM7.95925 16.0225L15.1533 8.82843L12.3249 6L5.13082 13.1941L7.95925 16.0225ZM15.1533 8.82843L15.3249 9L18.1533 6.17157L17.9817 6L15.1533 8.82843ZM15.3249 9L8.13082 16.1941L10.9592 19.0225L18.1533 11.8284L15.3249 9ZM4.07868 15.0524L3.41515 17.7065L7.29572 18.6766L7.95925 16.0225L4.07868 15.0524ZM6.44684 20.7382L9.10096 20.0746L8.13082 16.1941L5.4767 16.8576L6.44684 20.7382ZM3.41515 17.7065C3.38632 17.8218 3.30387 18.1296 3.27591 18.4155C3.24552 18.7261 3.21841 19.5599 3.90592 20.2474L6.73435 17.419C7.00003 17.6847 7.15246 18.0005 7.21976 18.2928C7.27845 18.5478 7.26297 18.7429 7.2569 18.8049C7.25031 18.8724 7.24124 18.904 7.25032 18.8631C7.25869 18.8253 7.2712 18.7747 7.29572 18.6766L3.41515 17.7065ZM5.30473 16.9089L5.30472 16.9089L6.61881 20.6869L6.61881 20.6869L5.30473 16.9089ZM5.4767 16.8576C5.37863 16.8821 5.32799 16.8946 5.29026 16.903C5.24927 16.9121 5.28094 16.903 5.34838 16.8964C5.41044 16.8903 5.60555 16.8749 5.86049 16.9336C6.15287 17.0009 6.46867 17.1533 6.73435 17.419L3.90592 20.2474C4.59343 20.9349 5.42719 20.9078 5.73781 20.8774C6.02371 20.8494 6.33154 20.767 6.44683 20.7382L5.4767 16.8576ZM8.13082 16.1941C8.10611 16.2188 8.08502 16.2399 8.06546 16.2593C8.04603 16.2787 8.03003 16.2945 8.01625 16.308C8.00248 16.3215 7.99243 16.3312 7.98504 16.3382C7.98144 16.3416 7.97877 16.3441 7.97693 16.3458C7.97508 16.3475 7.97422 16.3483 7.97424 16.3482C7.97426 16.3482 7.9753 16.3473 7.97727 16.3456C7.97924 16.3439 7.98225 16.3413 7.98623 16.338C7.99418 16.3314 8.00624 16.3216 8.02198 16.3098C8.03787 16.2979 8.05694 16.2843 8.07896 16.2699C8.10108 16.2553 8.12463 16.2408 8.14937 16.2268L10.1202 19.7076C10.5293 19.476 10.8397 19.1421 10.9592 19.0225L8.13082 16.1941ZM9.10096 20.0746C9.26501 20.0336 9.71103 19.9393 10.1202 19.7076L8.14937 16.2268C8.17411 16.2128 8.19862 16.2001 8.22249 16.1886C8.24624 16.1772 8.2677 16.1678 8.28609 16.1603C8.3043 16.1529 8.31885 16.1475 8.32862 16.1441C8.33349 16.1424 8.33726 16.1412 8.33974 16.1404C8.34222 16.1395 8.34356 16.1391 8.34358 16.1391C8.3436 16.1391 8.3425 16.1395 8.34009 16.1402C8.33767 16.1409 8.33416 16.1419 8.32938 16.1432C8.31957 16.1459 8.3061 16.1496 8.28746 16.1544C8.2688 16.1593 8.247 16.1649 8.22042 16.1716C8.19366 16.1784 8.16472 16.1856 8.13083 16.1941L9.10096 20.0746ZM15.3249 9C15.4968 9.17192 15.6231 9.29842 15.7272 9.40785C15.8319 9.518 15.8796 9.57518 15.8991 9.60073C15.9178 9.62524 15.876 9.57638 15.8307 9.46782C15.7788 9.34332 15.7391 9.18102 15.7391 9H19.7391C19.7391 8.17978 19.3816 7.57075 19.0791 7.1744C18.812 6.82421 18.4467 6.46493 18.1533 6.17157L15.3249 9ZM18.1533 11.8284L18.1533 11.8284L15.3249 8.99999L15.3249 9L18.1533 11.8284ZM18.1533 11.8284C18.4467 11.5351 18.812 11.1758 19.0792 10.8256C19.3816 10.4292 19.7391 9.82022 19.7391 9H15.7391C15.7391 8.81898 15.7788 8.65668 15.8307 8.53218C15.876 8.42362 15.9178 8.37476 15.8991 8.39927C15.8796 8.42482 15.8319 8.482 15.7272 8.59215C15.6231 8.70157 15.4968 8.82807 15.3249 9L18.1533 11.8284ZM15.1533 8.82843C15.3252 8.6565 15.4517 8.53019 15.5612 8.42615C15.6713 8.32142 15.7285 8.27375 15.754 8.25426C15.7786 8.23555 15.7297 8.27736 15.6211 8.32264C15.4966 8.37455 15.3343 8.41421 15.1533 8.41421V4.41421C14.3331 4.41421 13.7241 4.77177 13.3277 5.07417C12.9775 5.34136 12.6182 5.70664 12.3249 6L15.1533 8.82843ZM17.9817 6C17.6884 5.70665 17.3291 5.34136 16.9789 5.07417C16.5826 4.77177 15.9735 4.41421 15.1533 4.41421V8.41421C14.9723 8.41421 14.81 8.37455 14.6855 8.32264C14.5769 8.27736 14.5281 8.23555 14.5526 8.25426C14.5781 8.27375 14.6353 8.32142 14.7455 8.42615C14.8549 8.53019 14.9814 8.6565 15.1533 8.82843L17.9817 6ZM5.13082 13.1941C5.01125 13.3136 4.67733 13.624 4.44568 14.0332L7.92648 16.0039C7.91247 16.0287 7.89802 16.0522 7.88346 16.0744C7.86897 16.0964 7.85539 16.1155 7.84348 16.1313C7.83169 16.1471 7.82195 16.1591 7.81534 16.1671C7.81203 16.1711 7.80945 16.1741 7.80774 16.1761C7.80603 16.178 7.8051 16.1791 7.80508 16.1791C7.80506 16.1791 7.80584 16.1782 7.80754 16.1764C7.80925 16.1745 7.81174 16.1719 7.81516 16.1683C7.82216 16.1609 7.83184 16.1508 7.84532 16.1371C7.85882 16.1233 7.87464 16.1073 7.89398 16.0879C7.91345 16.0683 7.93454 16.0472 7.95925 16.0225L5.13082 13.1941ZM7.95925 16.0225C7.96772 15.9886 7.97496 15.9597 7.98171 15.9329C7.98842 15.9063 7.994 15.8845 7.99888 15.8659C8.00375 15.8472 8.00739 15.8337 8.01012 15.8239C8.01145 15.8192 8.01246 15.8157 8.01316 15.8132C8.01386 15.8108 8.0142 15.8097 8.0142 15.8097C8.01419 15.8098 8.01378 15.8111 8.01297 15.8136C8.01216 15.8161 8.0109 15.8198 8.0092 15.8247C8.00578 15.8345 8.00045 15.849 7.99302 15.8672C7.98552 15.8856 7.97616 15.9071 7.96473 15.9308C7.95325 15.9547 7.9405 15.9792 7.92648 16.0039L4.44568 14.0332C4.21403 14.4423 4.11969 14.8883 4.07868 15.0524L7.95925 16.0225Z" fill="white" mask="url(#path-1-outside-1_0_1788)"/>
<path d="M12.6533 7.5L15.6533 5.5L18.6533 8.5L16.6533 11.5L12.6533 7.5Z" fill="white"/>
</svg>
