<svg width="37" height="37" viewBox="0 0 37 37" fill="none" xmlns="http://www.w3.org/2000/svg">
<rect width="37" height="37" rx="6" fill="#171823"/>
<path d="M8.29352 18.7061C7.07102 18.3975 6.10964 17.4361 5.80105 16.2136L5.75358 16L5.7061 16.2136C5.39751 17.4361 4.43613 18.3975 3.21364 18.7061L3 18.7536L3.21364 18.8011C4.43613 19.1096 5.39751 20.071 5.7061 21.2935L5.75358 21.5072L5.80105 21.2935C6.10964 20.071 7.07102 19.1096 8.29352 18.8011L8.50716 18.7536L8.29352 18.7061Z" fill="#FFE620"/>
<path d="M8.39945 10.4034C7.52115 10.1897 6.84463 9.50134 6.61912 8.62305L6.58351 8.46875L6.54791 8.62305C6.3224 9.50134 5.64587 10.1779 4.76758 10.4034L4.61328 10.439L4.76758 10.4746C5.64587 10.6882 6.3224 11.3766 6.54791 12.2549L6.58351 12.4092L6.61912 12.2549C6.84463 11.3766 7.52115 10.7001 8.39945 10.4746L8.55375 10.439L8.39945 10.4034Z" fill="#FFE620"/>
<path d="M34.9761 22.0296C34.0503 21.8041 33.3382 21.0801 33.1008 20.1543L33.0652 20L33.0296 20.1543C32.8041 21.0801 32.0801 21.7922 31.1543 22.0296L31 22.0652L31.1543 22.1008C32.0801 22.3263 32.7922 23.0503 33.0296 23.9761L33.0652 24.1304L33.1008 23.9761C33.3263 23.0503 34.0503 22.3382 34.9761 22.1008L35.1304 22.0652L34.9761 22.0296Z" fill="#5D8EF9"/>
<path d="M28.4508 7.26695C27.4301 7.00584 26.623 6.21062 26.3619 5.17803L26.3144 5L26.267 5.17803C26.0058 6.19876 25.2106 7.00584 24.178 7.26695L24 7.31443L24.178 7.3619C25.2106 7.62302 26.0058 8.41823 26.267 9.45082L26.3144 9.62886L26.3619 9.45082C26.623 8.4301 27.4182 7.62302 28.4508 7.3619L28.6289 7.31443L28.4508 7.26695Z" fill="#8C7BFD"/>
<path d="M22.7781 14.2465L22.7386 13.2472L22.7781 14.2465ZM25.1931 14.6722L26.0861 14.2221L25.1931 14.6722ZM24.9452 14.2372L24.1763 14.8766L24.9452 14.2372ZM24.0821 13.8811L23.9878 12.8855L24.0821 13.8811ZM25.4964 17.0227L26.1262 17.7994L25.4964 17.0227ZM25.8201 15.9447L26.7737 15.6435L25.8201 15.9447ZM24.7121 19.0691L25.332 18.2844L24.7121 19.0691ZM24.6489 17.5541L23.9657 16.8238L24.6489 17.5541ZM26.0217 20.9708L25.0795 20.6357L26.0217 20.9708ZM26.1484 20.5589L27.1374 20.7067L26.1484 20.5589ZM25.3666 19.4042L24.9434 20.3103L25.3666 19.4042ZM25.7488 19.6033L26.3383 18.7955L25.7488 19.6033ZM24.1982 22.6873L23.9541 23.657L24.1982 22.6873ZM24.6212 22.7744L24.6739 21.7758L24.6212 22.7744ZM25.6961 21.886L26.6383 22.2212L25.6961 21.886ZM25.5339 22.2862L24.6739 21.7758L25.5339 22.2862ZM22.4724 23.6681L23.4633 23.5335L22.4724 23.6681ZM24.1042 22.6636L24.3483 21.6939L24.1042 22.6636ZM23.478 22.5336L23.4633 23.5335L23.478 22.5336ZM22.0397 25.8157L21.6316 24.9028L22.0397 25.8157ZM22.3646 25.6563L22.9138 26.492L22.3646 25.6563ZM22.7942 24.6163L21.8153 24.8207L22.7942 24.6163ZM19.424 25.7509L20.2681 25.2146L19.424 25.7509ZM19.7133 26.1586L20.4154 25.4465L19.7133 26.1586ZM21.0743 26.2473L20.6662 25.3344L21.0743 26.2473ZM20.608 26.4278L20.8006 27.409L20.608 26.4278ZM17.5257 25.1376L18.2723 25.8029L17.5257 25.1376ZM19.3723 25.6696L18.5283 26.2058L19.3723 25.6696ZM18.934 25.0531L18.2723 25.8029L18.934 25.0531ZM16.012 26.5746L16.1593 25.5855L16.012 26.5746ZM16.9613 26.1828L16.1593 25.5855L16.9613 26.1828ZM13.6331 24.9989L12.6341 24.9554L13.6331 24.9989ZM14.1218 25.9022L14.6322 25.0423L14.1218 25.9022ZM12.8168 22.8774L12.7771 21.8782L12.8168 22.8774ZM13.8555 23.8325L12.8565 23.8767L13.8555 23.8325ZM10.4031 22.4517L9.51016 22.9018L10.4031 22.4517ZM10.6508 22.8862L11.4198 22.247L10.6508 22.8862ZM11.9963 23.109L12.3121 24.0579L11.9963 23.109ZM11.5143 23.2425L11.4198 22.247L11.5143 23.2425ZM10.0995 20.1011L9.46945 19.3245L10.0995 20.1011ZM9.92725 21.5076L9.03428 21.9577L9.92725 21.5076ZM9.77592 21.1786L10.7296 20.8776L9.77592 21.1786ZM10.3173 17.7593L9.89412 18.6653L10.3173 17.7593ZM10.8854 18.0542L10.2652 18.8386L10.8854 18.0542ZM10.9486 19.5686L10.2652 18.8386L10.9486 19.5686ZM9.44762 16.5639L10.4367 16.7113L9.44762 16.5639ZM10.2298 17.7184L9.80666 18.6245L10.2298 17.7184ZM9.847 17.519L10.4367 16.7113L9.847 17.519ZM11.3973 14.435L11.6414 13.4653L11.3973 14.435ZM10.9753 14.348L11.0285 13.3495L10.9753 14.348ZM10.062 14.8367L10.9222 15.3466L10.062 14.8367ZM13.1221 13.4539L12.1312 13.5886L13.1221 13.4539ZM11.4904 14.4585L11.7345 13.4887L11.4904 14.4585ZM12.1164 14.5885L12.1312 13.5886L12.1164 14.5885ZM13.5548 11.3065L13.9629 12.2194L13.5548 11.3065ZM13.23 11.4659L13.7792 12.3015L13.23 11.4659ZM12.8003 12.5059L11.8214 12.7103L12.8003 12.5059ZM16.1708 11.3717L15.3267 11.908L16.1708 11.3717ZM15.8809 10.9633L16.5827 10.2509L15.8809 10.9633ZM14.5199 10.8751L14.928 11.788L14.5199 10.8751ZM14.9869 10.6944L14.7947 9.71303L14.9869 10.6944ZM18.0696 11.9857L18.8162 12.651L18.0696 11.9857ZM16.6612 12.0702L17.323 11.3205L16.6612 12.0702ZM21.9621 12.1244L22.9612 12.1677L21.9621 12.1244ZM18.634 10.9406L17.832 10.3433L18.634 10.9406ZM19.6605 11.6177L20.7385 12.0012L21.4088 10.1169L20.3308 9.73341L19.6605 11.6177ZM15.3267 11.908L15.3789 11.9901L17.067 10.9176L17.0148 10.8355L15.3267 11.908ZM13.9629 12.2194L14.928 11.788L14.1117 9.96216L13.1467 10.3936L13.9629 12.2194ZM11.1532 15.4048L11.2463 15.4282L11.7345 13.4887L11.6414 13.4653L11.1532 15.4048ZM10.5167 16.4864L10.8423 15.5711L8.95797 14.9008L8.63237 15.8161L10.5167 16.4864ZM10.7404 16.8532L10.653 16.8124L9.80666 18.6245L9.89412 18.6653L10.7404 16.8532ZM11.2961 22.0016L10.8202 21.0575L9.03428 21.9577L9.51016 22.9018L11.2961 22.0016ZM11.7722 22.1297L11.6805 22.1602L12.3121 24.0579L12.4037 24.0273L11.7722 22.1297ZM15.9347 25.5057L14.8566 25.1221L14.1863 27.0065L15.2645 27.39L15.9347 25.5057ZM20.2681 25.2146L20.2164 25.1333L18.5283 26.2058L18.5799 26.2871L20.2681 25.2146ZM21.6316 24.9028L20.6662 25.3344L21.4824 27.1602L22.4478 26.7287L21.6316 24.9028ZM24.4424 21.7176L24.3483 21.6939L23.8601 23.6334L23.9541 23.657L24.4424 21.7176ZM25.0795 20.6357L24.754 21.5509L26.6383 22.2212L26.9638 21.306L25.0795 20.6357ZM24.856 20.2694L24.9434 20.3103L25.7898 18.4982L25.7023 18.4573L24.856 20.2694ZM24.3002 15.1223L24.7761 16.0664L26.562 15.1662L26.0861 14.2221L24.3002 15.1223ZM23.8233 14.9941L23.9153 14.9635L23.2838 13.0658L23.1917 13.0964L23.8233 14.9941ZM23.1917 13.0964C22.9877 13.1644 22.8637 13.2054 22.7724 13.2317C22.6761 13.2594 22.6856 13.2493 22.7386 13.2472L22.8176 15.2457C23.0124 15.238 23.1907 15.1925 23.3257 15.1536C23.4657 15.1133 23.6356 15.0566 23.8233 14.9941L23.1917 13.0964ZM20.907 12.3128C20.8605 12.5051 20.8182 12.6791 20.7898 12.822C20.7623 12.9598 20.732 13.1413 20.7406 13.336L22.7386 13.2472C22.741 13.3002 22.7318 13.3106 22.7513 13.2123C22.7698 13.1191 22.8004 12.9921 22.8509 12.7831L20.907 12.3128ZM22.7386 13.2472L20.7406 13.336C20.7895 14.4357 21.7177 15.2891 22.8176 15.2457L22.7386 13.2472ZM26.0861 14.2221C25.9932 14.0378 25.8777 13.7946 25.714 13.5977L24.1763 14.8766C24.1571 14.8535 24.1555 14.8448 24.1788 14.8867C24.2049 14.9337 24.2382 14.9993 24.3002 15.1223L26.0861 14.2221ZM23.9153 14.9635C24.0459 14.92 24.1159 14.8969 24.1675 14.8821C24.2136 14.8688 24.2063 14.8738 24.1763 14.8766L23.9878 12.8855C23.7329 12.9096 23.4795 13.0007 23.2838 13.0658L23.9153 14.9635ZM25.714 13.5977C25.2916 13.0898 24.6455 12.8232 23.9878 12.8855L24.1763 14.8766L25.714 13.5977ZM25.6866 18.0811C25.8162 18.0069 25.9853 17.9137 26.1262 17.7994L24.8666 16.2459C24.8838 16.2319 24.8895 16.2302 24.8588 16.249C24.8252 16.2695 24.7785 16.2964 24.6921 16.3459L25.6866 18.0811ZM24.7761 16.0664C24.8209 16.1553 24.845 16.2034 24.8618 16.2392C24.8771 16.2717 24.8733 16.2672 24.8666 16.2459L26.7737 15.6435C26.719 15.4705 26.6292 15.2995 26.562 15.1662L24.7761 16.0664ZM26.1262 17.7994C26.7644 17.282 27.0212 16.4269 26.7737 15.6435L24.8666 16.2459L26.1262 17.7994ZM25.7023 18.4573C25.5375 18.3803 25.4362 18.3329 25.3636 18.296C25.2858 18.2565 25.2965 18.2563 25.332 18.2844L24.0923 19.8538C24.2191 19.9539 24.3547 20.0268 24.4583 20.0794C24.5671 20.1346 24.7037 20.1983 24.856 20.2694L25.7023 18.4573ZM24.6921 16.3459C24.5463 16.4295 24.4155 16.5043 24.3117 16.5684C24.2128 16.6295 24.0837 16.7134 23.9657 16.8238L25.332 18.2844C25.299 18.3153 25.2883 18.3159 25.3625 18.2701C25.4318 18.2273 25.5287 18.1716 25.6866 18.0811L24.6921 16.3459ZM25.332 18.2844L23.9657 16.8238C23.072 17.6598 23.132 19.0952 24.0923 19.8538L25.332 18.2844ZM26.9638 21.306C27.0234 21.1384 27.1052 20.9225 27.1374 20.7067L25.1594 20.4111C25.1633 20.3852 25.1674 20.3791 25.1546 20.4193C25.1405 20.4638 25.1192 20.524 25.0795 20.6357L26.9638 21.306ZM24.9434 20.3103C25.0509 20.3604 25.1087 20.3876 25.1502 20.4088C25.1878 20.4279 25.1806 20.4266 25.1594 20.4111L26.3383 18.7955C26.162 18.6669 25.9509 18.5734 25.7898 18.4982L24.9434 20.3103ZM27.1374 20.7067C27.2474 19.9705 26.9395 19.2342 26.3383 18.7955L25.1594 20.4111L27.1374 20.7067ZM23.9541 23.657C24.1269 23.7005 24.3501 23.7615 24.5684 23.7731L24.6739 21.7758C24.7002 21.7772 24.7066 21.7808 24.6653 21.7719C24.6196 21.762 24.5575 21.7465 24.4424 21.7176L23.9541 23.657ZM24.754 21.5509C24.7141 21.6628 24.6926 21.723 24.6754 21.7665C24.6599 21.8058 24.6605 21.7985 24.6739 21.7758L26.3939 22.7965C26.5054 22.6085 26.5786 22.389 26.6383 22.2212L24.754 21.5509ZM24.5684 23.7731C25.3111 23.8123 26.0143 23.4361 26.3939 22.7965L24.6739 21.7758L24.5684 23.7731ZM23.61 23.9154C23.5447 23.7454 23.5047 23.6408 23.478 23.5639C23.4493 23.4813 23.4572 23.4886 23.4633 23.5335L21.4815 23.8026C21.5032 23.9629 21.5504 24.1097 21.5885 24.2195C21.6285 24.335 21.6828 24.4757 21.7431 24.6328L23.61 23.9154ZM24.3483 21.6939C24.1851 21.6528 24.0388 21.6158 23.9194 21.5899C23.8058 21.5653 23.6544 21.5361 23.4927 21.5337L23.4633 23.5335C23.418 23.5328 23.4098 23.5259 23.4952 23.5444C23.5748 23.5617 23.6834 23.5889 23.8601 23.6334L24.3483 21.6939ZM23.4633 23.5335L23.4927 21.5337C22.2694 21.5157 21.3168 22.5904 21.4815 23.8026L23.4633 23.5335ZM22.4478 26.7287C22.5843 26.6677 22.762 26.5918 22.9138 26.492L21.8153 24.8207C21.8339 24.8084 21.8398 24.8073 21.8073 24.8229C21.7717 24.8401 21.7225 24.8622 21.6316 24.9028L22.4478 26.7287ZM21.7431 24.6328C21.7788 24.7258 21.7981 24.7762 21.8112 24.8134C21.8232 24.8474 21.8199 24.8425 21.8153 24.8207L23.7731 24.412C23.736 24.2342 23.6637 24.055 23.61 23.9154L21.7431 24.6328ZM22.9138 26.492C23.6002 26.0409 23.9409 25.216 23.7731 24.412L21.8153 24.8207L22.9138 26.492ZM18.5799 26.2871C18.6904 26.461 18.8292 26.6913 19.0113 26.8708L20.4154 25.4465C20.4368 25.4676 20.4393 25.476 20.412 25.4367C20.3814 25.3926 20.3418 25.3307 20.2681 25.2146L18.5799 26.2871ZM20.6662 25.3344C20.5407 25.3905 20.4735 25.4203 20.4236 25.4402C20.3792 25.458 20.3859 25.4523 20.4154 25.4465L20.8006 27.409C21.0515 27.3598 21.2943 27.2443 21.4824 27.1602L20.6662 25.3344ZM19.0113 26.8708C19.4821 27.3349 20.1519 27.5364 20.8006 27.409L20.4154 25.4465L19.0113 26.8708ZM18.0663 26.2335C18.1591 26.0396 18.2156 25.9219 18.2601 25.838C18.3069 25.7495 18.3076 25.7633 18.2723 25.8029L16.7791 24.4724C16.6495 24.6179 16.5584 24.7777 16.4927 24.9018C16.4245 25.0306 16.3474 25.1921 16.2621 25.3706L18.0663 26.2335ZM20.2164 25.1333C20.1103 24.9664 20.0145 24.8152 19.9314 24.6955C19.8513 24.5801 19.7418 24.4323 19.5958 24.3034L18.2723 25.8029C18.2325 25.7678 18.2315 25.754 18.2887 25.8363C18.3428 25.9143 18.413 26.0244 18.5283 26.2058L20.2164 25.1333ZM18.2723 25.8029L19.5958 24.3034C18.7704 23.5749 17.5114 23.6504 16.7791 24.4724L18.2723 25.8029ZM15.2645 27.39C15.4321 27.4496 15.6484 27.5315 15.8648 27.5637L16.1593 25.5855C16.1852 25.5894 16.1913 25.5935 16.1512 25.5808C16.1067 25.5667 16.0465 25.5454 15.9347 25.5057L15.2645 27.39ZM16.2621 25.3706C16.2109 25.4776 16.1832 25.5351 16.1617 25.5765C16.1422 25.6138 16.1436 25.6066 16.1593 25.5855L17.7633 26.7801C17.894 26.6047 17.9895 26.3941 18.0663 26.2335L16.2621 25.3706ZM15.8648 27.5637C16.5936 27.6722 17.3232 27.3711 17.7633 26.7801L16.1593 25.5855L15.8648 27.5637ZM12.7443 24.3405C12.7025 24.5134 12.6436 24.7369 12.6341 24.9554L14.6322 25.0423C14.631 25.0685 14.6276 25.075 14.636 25.0338C14.6454 24.9881 14.6603 24.9261 14.6882 24.8108L12.7443 24.3405ZM14.8566 25.1221C14.7449 25.0824 14.6848 25.0609 14.6414 25.0437C14.6023 25.0283 14.6096 25.0289 14.6322 25.0423L13.6113 26.7622C13.7994 26.8738 14.0187 26.9469 14.1863 27.0065L14.8566 25.1221ZM12.6341 24.9554C12.602 25.6917 12.9776 26.386 13.6113 26.7622L14.6322 25.0423L12.6341 24.9554ZM12.4037 24.0273C12.6076 23.9595 12.7315 23.9185 12.8228 23.8922C12.919 23.8645 12.9095 23.8746 12.8565 23.8767L12.7771 21.8782C12.5825 21.886 12.4044 21.9314 12.2694 21.9703C12.1295 22.0106 11.9597 22.0673 11.7722 22.1297L12.4037 24.0273ZM14.6882 24.8108C14.7347 24.6186 14.777 24.4448 14.8054 24.3019C14.8328 24.1642 14.8632 23.9828 14.8545 23.7883L12.8565 23.8767C12.8542 23.8237 12.8634 23.8134 12.8439 23.9116C12.8253 24.0047 12.7948 24.1316 12.7443 24.3405L14.6882 24.8108ZM12.8565 23.8767L14.8545 23.7883C14.8059 22.6883 13.8773 21.8345 12.7771 21.8782L12.8565 23.8767ZM9.51016 22.9018C9.60292 23.0858 9.71829 23.3288 9.88175 23.5254L11.4198 22.247C11.439 22.2701 11.4406 22.2787 11.4174 22.2369C11.3913 22.19 11.358 22.1244 11.2961 22.0016L9.51016 22.9018ZM11.6805 22.1602C11.55 22.2036 11.4802 22.2267 11.4286 22.2415C11.3826 22.2548 11.3898 22.2498 11.4198 22.247L11.6088 24.238C11.8634 24.2138 12.1165 24.1229 12.3121 24.0579L11.6805 22.1602ZM9.88175 23.5254C10.3043 24.0338 10.9508 24.3005 11.6088 24.238L11.4198 22.247L9.88175 23.5254ZM9.90986 19.0422C9.78006 19.1166 9.61062 19.21 9.46945 19.3245L10.7296 20.8776C10.7123 20.8917 10.7066 20.8934 10.7373 20.8746C10.771 20.854 10.8178 20.827 10.9043 20.7775L9.90986 19.0422ZM10.8202 21.0575C10.7754 20.9685 10.7511 20.9202 10.7344 20.8844C10.719 20.8518 10.7229 20.8564 10.7296 20.8776L8.82227 21.4795C8.87698 21.6528 8.96694 21.8241 9.03428 21.9577L10.8202 21.0575ZM9.46945 19.3245C8.8318 19.8419 8.57517 20.6964 8.82227 21.4795L10.7296 20.8776L9.46945 19.3245ZM9.89412 18.6653C10.0593 18.7425 10.1608 18.79 10.2335 18.8269C10.3114 18.8665 10.3007 18.8667 10.2652 18.8386L11.5056 17.2697C11.3786 17.1693 11.2427 17.0963 11.1389 17.0436C11.0299 16.9883 10.893 16.9245 10.7404 16.8532L9.89412 18.6653ZM10.9043 20.7775C11.0504 20.6937 11.1815 20.6188 11.2856 20.5545C11.3846 20.4933 11.5139 20.4092 11.6321 20.2986L10.2652 18.8386C10.2982 18.8076 10.309 18.807 10.2346 18.8529C10.1652 18.8958 10.068 18.9516 9.90986 19.0422L10.9043 20.7775ZM10.2652 18.8386L11.6321 20.2986C12.5249 19.4627 12.465 18.0283 11.5056 17.2697L10.2652 18.8386ZM8.63237 15.8161C8.57268 15.9839 8.49079 16.2002 8.45856 16.4164L10.4367 16.7113C10.4328 16.7374 10.4287 16.7434 10.4415 16.7032C10.4556 16.6586 10.4769 16.5983 10.5167 16.4864L8.63237 15.8161ZM10.653 16.8124C10.5454 16.7621 10.4875 16.7349 10.4459 16.7137C10.4082 16.6945 10.4155 16.6958 10.4367 16.7113L9.25731 18.3266C9.43381 18.4555 9.6453 18.5491 9.80666 18.6245L10.653 16.8124ZM8.45856 16.4164C8.34885 17.1521 8.65654 17.888 9.25731 18.3266L10.4367 16.7113L8.45856 16.4164ZM11.6414 13.4653C11.469 13.4219 11.2464 13.3611 11.0285 13.3495L10.9222 15.3466C10.8959 15.3452 10.8895 15.3417 10.9307 15.3506C10.9763 15.3604 11.0383 15.3759 11.1532 15.4048L11.6414 13.4653ZM10.8423 15.5711C10.882 15.4594 10.9035 15.3993 10.9207 15.356C10.9362 15.3168 10.9355 15.324 10.9222 15.3466L9.20176 14.3267C9.09052 14.5143 9.01754 14.7333 8.95797 14.9008L10.8423 15.5711ZM11.0285 13.3495C10.2852 13.3099 9.58137 13.6864 9.20176 14.3267L10.9222 15.3466L11.0285 13.3495ZM11.9845 13.2067C12.0498 13.3767 12.0898 13.4812 12.1165 13.5582C12.1452 13.6407 12.1373 13.6334 12.1312 13.5886L14.113 13.3193C14.0912 13.1591 14.0441 13.0124 14.006 12.9025C13.966 12.7871 13.9117 12.6464 13.8514 12.4894L11.9845 13.2067ZM11.2463 15.4282C11.4095 15.4693 11.5557 15.5062 11.6751 15.5321C11.7887 15.5568 11.94 15.586 12.1017 15.5884L12.1312 13.5886C12.1765 13.5892 12.1846 13.5962 12.0993 13.5776C12.0197 13.5604 11.9111 13.5332 11.7345 13.4887L11.2463 15.4282ZM12.1312 13.5886L12.1017 15.5884C13.325 15.6064 14.2777 14.5317 14.113 13.3193L12.1312 13.5886ZM13.1467 10.3936C13.0103 10.4546 12.8326 10.5305 12.6808 10.6302L13.7792 12.3015C13.7606 12.3138 13.7548 12.3149 13.7872 12.2993C13.8228 12.2822 13.872 12.2601 13.9629 12.2194L13.1467 10.3936ZM13.8514 12.4894C13.8157 12.3964 13.7964 12.346 13.7833 12.3088C13.7714 12.2748 13.7747 12.2797 13.7792 12.3015L11.8214 12.7103C11.8586 12.888 11.9309 13.0672 11.9845 13.2067L13.8514 12.4894ZM12.6808 10.6302C11.9944 11.0813 11.6536 11.9062 11.8214 12.7103L13.7792 12.3015L12.6808 10.6302ZM17.0148 10.8355C16.9042 10.6613 16.7651 10.4306 16.5827 10.2509L15.1792 11.6757C15.1577 11.6546 15.1552 11.6461 15.1826 11.6855C15.2132 11.7297 15.2529 11.7918 15.3267 11.908L17.0148 10.8355ZM14.928 11.788C15.0537 11.7318 15.121 11.7019 15.1709 11.682C15.2154 11.6642 15.2087 11.6699 15.1792 11.6757L14.7947 9.71303C14.5434 9.76227 14.3001 9.87794 14.1117 9.96216L14.928 11.788ZM16.5827 10.2509C16.1121 9.78734 15.4429 9.58604 14.7947 9.71303L15.1792 11.6757L16.5827 10.2509ZM17.529 10.8899C17.4362 11.0838 17.3797 11.2015 17.3352 11.2854C17.2884 11.3739 17.2877 11.3601 17.323 11.3205L18.8162 12.651C18.9458 12.5055 19.0369 12.3457 19.1026 12.2215C19.1708 12.0928 19.2479 11.9312 19.3332 11.7528L17.529 10.8899ZM15.3789 11.9901C15.4849 12.157 15.5808 12.3082 15.6638 12.4279C15.744 12.5432 15.8534 12.691 15.9995 12.82L17.323 11.3205C17.3627 11.3556 17.3638 11.3694 17.3066 11.2871C17.2525 11.2091 17.1823 11.099 17.067 10.9176L15.3789 11.9901ZM17.323 11.3205L15.9995 12.82C16.8249 13.5485 18.0839 13.4729 18.8162 12.651L17.323 11.3205ZM20.7385 12.0012C20.8503 12.041 20.9104 12.0625 20.9538 12.0797C20.993 12.0951 20.9856 12.0945 20.9631 12.0811L21.9842 10.3614C21.796 10.2497 21.5765 10.1765 21.4088 10.1169L20.7385 12.0012ZM22.8509 12.7831C22.8928 12.6101 22.9517 12.3864 22.9612 12.1677L20.9631 12.0811C20.9642 12.0549 20.9677 12.0484 20.9592 12.0896C20.9498 12.1353 20.9349 12.1974 20.907 12.3128L22.8509 12.7831ZM20.9631 12.0811L22.9612 12.1677C22.9931 11.4316 22.6177 10.7376 21.9842 10.3614L20.9631 12.0811ZM20.3308 9.73341C20.1631 9.67377 19.9469 9.5919 19.7305 9.55968L19.436 11.5379C19.4101 11.534 19.404 11.5299 19.4441 11.5426C19.4885 11.5567 19.5487 11.578 19.6605 11.6177L20.3308 9.73341ZM19.3332 11.7528C19.3844 11.6458 19.4121 11.5883 19.4336 11.5469C19.4531 11.5096 19.4517 11.5168 19.436 11.5379L17.832 10.3433C17.7013 10.5188 17.6057 10.7293 17.529 10.8899L19.3332 11.7528ZM19.7305 9.55968C19.0016 9.45117 18.2721 9.75227 17.832 10.3433L19.436 11.5379L19.7305 9.55968Z" fill="#50FAFA"/>
<circle cx="18.2417" cy="18.3945" r="2" stroke="#1556EE" stroke-width="2"/>
</svg>
