<svg width="26" height="26" viewBox="0 0 26 26" fill="none" xmlns="http://www.w3.org/2000/svg">
<circle cx="9" cy="17" r="7" fill="black" fill-opacity="0.38"/>
<path d="M8 5.5V13H12.382C12.6827 13 12.833 13 12.9538 13.0747C13.0747 13.1493 13.1419 13.2838 13.2764 13.5528L13.7236 14.4472C13.8581 14.7162 13.9253 14.8507 14.0462 14.9253C14.167 15 14.3173 15 14.618 15H19.5C19.7357 15 19.8536 15 19.9268 14.9268C20 14.8536 20 14.7357 20 14.5V7.5C20 7.2643 20 7.14645 19.9268 7.07322C19.8536 7 19.7357 7 19.5 7H14.618C14.3173 7 14.167 7 14.0462 6.92533C13.9253 6.85065 13.8581 6.71617 13.7236 6.44721L13.2764 5.55279C13.1419 5.28383 13.0747 5.14935 12.9538 5.07467C12.833 5 12.6827 5 12.382 5H8.5C8.2643 5 8.14645 5 8.07322 5.07322C8 5.14645 8 5.2643 8 5.5Z" fill="#50FAFA" fill-opacity="0.6"/>
<path d="M8 13V5.5C8 5.2643 8 5.14645 8.07322 5.07322C8.14645 5 8.2643 5 8.5 5H12.382C12.6827 5 12.833 5 12.9538 5.07467C13.0747 5.14935 13.1419 5.28383 13.2764 5.55279L13.7236 6.44721C13.8581 6.71617 13.9253 6.85065 14.0462 6.92533C14.167 7 14.3173 7 14.618 7H19.5C19.7357 7 19.8536 7 19.9268 7.07322C20 7.14645 20 7.2643 20 7.5V14.5C20 14.7357 20 14.8536 19.9268 14.9268C19.8536 15 19.7357 15 19.5 15H14.618C14.3173 15 14.167 15 14.0462 14.9253C13.9253 14.8507 13.8581 14.7162 13.7236 14.4472L13.2764 13.5528C13.1419 13.2838 13.0747 13.1493 12.9538 13.0747C12.833 13 12.6827 13 12.382 13H8ZM8 13V19" stroke="#50FAFA" stroke-width="2" stroke-linecap="round"/>
</svg>
