<svg xmlns:xlink="http://www.w3.org/1999/xlink" xmlns="http://www.w3.org/2000/svg" viewBox="0 0 48 48" width="50"  height="50" ><defs><radialGradient id="A7PLgomChaxnaIg_9PPhFa" cx="-384" cy="24" r="18" fx="-384.095" fy="16.289" gradientTransform="matrix(-1 0 0 1 -360 0)" gradientUnits="userSpaceOnUse"><stop offset="0" stop-color="#ffe16e"></stop><stop offset=".629" stop-color="#ffd426"></stop><stop offset=".72" stop-color="#fdcd23"></stop><stop offset=".854" stop-color="#f8b919"></stop><stop offset="1" stop-color="#f09c0c"></stop></radialGradient><radialGradient id="A7PLgomChaxnaIg_9PPhFa" cx="-384" cy="24" r="18" fx="-384.095" fy="16.289" gradientTransform="matrix(-1 0 0 1 -360 0)" gradientUnits="userSpaceOnUse"><stop offset="0" stop-color="#ffe16e"></stop><stop offset=".629" stop-color="#ffd426"></stop><stop offset=".72" stop-color="#fdcd23"></stop><stop offset=".854" stop-color="#f8b919"></stop><stop offset="1" stop-color="#f09c0c"></stop></radialGradient><radialGradient id="A7PLgomChaxnaIg_9PPhFb" cx="92" cy="72.772" r="2.496" gradientTransform="matrix(-.00026 .989 -.7516 -.00021 78.72 -56.442)" gradientUnits="userSpaceOnUse"><stop offset=".822" stop-color="#ffe16e"></stop><stop offset="1" stop-color="#ffe16e" stop-opacity="0"></stop></radialGradient><radialGradient id="A7PLgomChaxnaIg_9PPhFc" cx="92" cy="71.623" r="1.939" gradientTransform="matrix(1 0 0 .8 -68 -22.8)" gradientUnits="userSpaceOnUse"><stop offset="0" stop-color="#1c1911"></stop><stop offset=".999" stop-color="#171714"></stop></radialGradient><radialGradient id="A7PLgomChaxnaIg_9PPhFd" cx="23.954" cy="48.407" r="3.276" gradientTransform="matrix(.0044 .9115 -.6913 .0028 57.313 12.686)" gradientUnits="userSpaceOnUse"><stop offset=".696" stop-color="#cc9000"></stop><stop offset="1" stop-color="#cc9000" stop-opacity="0"></stop></radialGradient><linearGradient id="A7PLgomChaxnaIg_9PPhFe" x1="25" x2="25" y1="7.734" y2="15.263" gradientUnits="userSpaceOnUse"><stop offset=".002" stop-color="#40bfff"></stop><stop offset=".639" stop-color="#158ae7"></stop><stop offset="1" stop-color="#0071db"></stop></linearGradient><linearGradient id="A7PLgomChaxnaIg_9PPhFf" x1="33" x2="33" y1=".718" y2="10.398" gradientUnits="userSpaceOnUse"><stop offset=".002" stop-color="#40bfff"></stop><stop offset=".639" stop-color="#158ae7"></stop><stop offset="1" stop-color="#0071db"></stop></linearGradient></defs><radialGradient id="A7PLgomChaxnaIg_9PPhFa" cx="-384" cy="24" r="18" fx="-384.095" fy="16.289" gradientTransform="matrix(-1 0 0 1 -360 0)" gradientUnits="userSpaceOnUse"><stop offset="0" stop-color="#ffe16e"></stop><stop offset=".629" stop-color="#ffd426"></stop><stop offset=".72" stop-color="#fdcd23"></stop><stop offset=".854" stop-color="#f8b919"></stop><stop offset="1" stop-color="#f09c0c"></stop></radialGradient><circle cx="24" cy="24" r="18" fill="url(&quot;#A7PLgomChaxnaIg_9PPhFa&quot;)"></circle><circle cx="27.5" cy="25.5" r=".5" fill="#212121"></circle><path fill="#212121" d="M34.258,25.061c0,0-1.726,0.944-3.258,0.944s-3.258-0.944-3.258-0.944l-0.631,0.754 c0,0,1.765,2.185,3.889,2.185s3.889-2.185,3.889-2.185L34.258,25.061z"></path><circle cx="34.5" cy="25.5" r=".5" fill="#212121"></circle><circle cx="13.5" cy="25.5" r=".5" fill="#212121"></circle><path fill="#212121" d="M20.258,25.061c0,0-1.726,0.944-3.258,0.944s-3.258-0.944-3.258-0.944l-0.631,0.754 c0,0,1.765,2.185,3.889,2.185s3.889-2.185,3.889-2.185L20.258,25.061z"></path><circle cx="20.5" cy="25.5" r=".5" fill="#212121"></circle><g><radialGradient id="A7PLgomChaxnaIg_9PPhFb" cx="92" cy="72.772" r="2.496" gradientTransform="matrix(-.00026 .989 -.7516 -.00021 78.72 -56.442)" gradientUnits="userSpaceOnUse"><stop offset=".822" stop-color="#ffe16e"></stop><stop offset="1" stop-color="#ffe16e" stop-opacity="0"></stop></radialGradient><ellipse cx="24" cy="34.528" fill="url(&quot;#A7PLgomChaxnaIg_9PPhFb&quot;)" rx="1.923" ry="2.472"></ellipse><radialGradient id="A7PLgomChaxnaIg_9PPhFc" cx="92" cy="71.623" r="1.939" gradientTransform="matrix(1 0 0 .8 -68 -22.8)" gradientUnits="userSpaceOnUse"><stop offset="0" stop-color="#1c1911"></stop><stop offset=".999" stop-color="#171714"></stop></radialGradient><path fill="url(&quot;#A7PLgomChaxnaIg_9PPhFc&quot;)" d="M26,34c0,1.105-0.895,2-2,2s-2-0.895-2-2s0.895-1,2-1S26,32.895,26,34z"></path><radialGradient id="A7PLgomChaxnaIg_9PPhFd" cx="23.954" cy="48.407" r="3.276" gradientTransform="matrix(.0044 .9115 -.6913 .0028 57.313 12.686)" gradientUnits="userSpaceOnUse"><stop offset=".696" stop-color="#cc9000"></stop><stop offset="1" stop-color="#cc9000" stop-opacity="0"></stop></radialGradient><path fill="url(&quot;#A7PLgomChaxnaIg_9PPhFd&quot;)" d="M24,37c-2.064,0-2-3-2-3s-0.469,4,2,4s2-4,2-4S26.064,37,24,37z"></path></g><g><linearGradient id="A7PLgomChaxnaIg_9PPhFe" x1="25" x2="25" y1="7.734" y2="15.263" gradientUnits="userSpaceOnUse"><stop offset=".002" stop-color="#40bfff"></stop><stop offset=".639" stop-color="#158ae7"></stop><stop offset="1" stop-color="#0071db"></stop></linearGradient><path fill="url(&quot;#A7PLgomChaxnaIg_9PPhFe&quot;)" d="M25.031,9.282h-1.896v-1.49H27v1.314l-2.068,4.196H27v1.49h-4v-1.314L25.031,9.282z"></path></g><g><linearGradient id="A7PLgomChaxnaIg_9PPhFf" x1="33" x2="33" y1=".718" y2="10.398" gradientUnits="userSpaceOnUse"><stop offset=".002" stop-color="#40bfff"></stop><stop offset=".639" stop-color="#158ae7"></stop><stop offset="1" stop-color="#0071db"></stop></linearGradient><path fill="url(&quot;#A7PLgomChaxnaIg_9PPhFf&quot;)" d="M33.047,2.708h-2.843V0.792H36v1.689l-3.102,5.395H36v1.916h-6V8.103L33.047,2.708z"></path></g><g><linearGradient id="A7PLgomChaxnaIg_9PPhFg" x1="44" x2="44" y1="2.693" y2="15.599" gradientUnits="userSpaceOnUse"><stop offset=".002" stop-color="#40bfff"></stop><stop offset=".639" stop-color="#158ae7"></stop><stop offset="1" stop-color="#0071db"></stop></linearGradient><path fill="url(#A7PLgomChaxnaIg_9PPhFg)" d="M44.063,5.347h-3.791V2.792H48v2.252l-4.137,7.193H48v2.555h-8V12.54L44.063,5.347z"></path></g></svg>