<svg width="18" height="19" viewBox="0 0 18 19" fill="none" xmlns="http://www.w3.org/2000/svg">
<path d="M10.6877 3.38354H7.31274C4.92626 3.38354 3.73302 3.38354 2.99163 4.13897C2.25024 4.8944 2.25024 6.11025 2.25024 8.54194V10.2614C2.25024 12.6931 2.25024 13.9089 2.99163 14.6644C3.73302 15.4198 4.92626 15.4198 7.31274 15.4198H10.6877C13.0742 15.4198 14.2675 15.4198 15.0089 14.6644C15.7502 13.9089 15.7502 12.6931 15.7502 10.2614V8.54194C15.7502 6.11025 15.7502 4.8944 15.0089 4.13897C14.2675 3.38354 13.0742 3.38354 10.6877 3.38354Z" stroke="#50FAFA" stroke-width="2"/>
<path d="M14.2457 12.4107H13.5048C13.0346 12.4107 12.7995 12.4107 12.6143 12.3332C12.3719 12.2318 12.1791 12.0391 12.0777 11.7967C12.0002 11.6115 12.0002 11.3764 12.0002 10.9062C12.0002 10.436 12.0002 10.2009 12.0777 10.0157C12.1791 9.77328 12.3719 9.58054 12.6143 9.47913C12.7995 9.40164 13.0346 9.40164 13.5048 9.40164H14.2457C14.7159 9.40164 14.951 9.40164 15.1362 9.47913C15.3786 9.58054 15.5713 9.77328 15.6728 10.0157C15.7502 10.2009 15.7502 10.436 15.7502 10.9062C15.7502 11.3764 15.7502 11.6115 15.6728 11.7967C15.5713 12.0391 15.3786 12.2318 15.1362 12.3332C14.951 12.4107 14.7159 12.4107 14.2457 12.4107Z" stroke="#50FAFA" stroke-width="2"/>
<path d="M5.25024 9.28278L9.67439 9.28278" stroke="#50FAFA" stroke-width="2" stroke-linecap="round" stroke-linejoin="round"/>
<path d="M7.4624 7.1449L7.4624 11.4206" stroke="#50FAFA" stroke-width="2" stroke-linecap="round" stroke-linejoin="round"/>
</svg>
