<svg width="37" height="37" viewBox="0 0 37 37" fill="none" xmlns="http://www.w3.org/2000/svg">
<rect width="37" height="37" rx="6" fill="#171823"/>
<path d="M24 24.4697H23" stroke="#50FAFA" stroke-width="2" stroke-linecap="round"/>
<path d="M8.29352 21.1758C7.07102 20.8672 6.10964 19.9059 5.80105 18.6834L5.75358 18.4697L5.7061 18.6834C5.39751 19.9059 4.43613 20.8672 3.21364 21.1758L3 21.2233L3.21364 21.2708C4.43613 21.5794 5.39751 22.5407 5.7061 23.7632L5.75358 23.9769L5.80105 23.7632C6.10964 22.5407 7.07102 21.5794 8.29352 21.2708L8.50716 21.2233L8.29352 21.1758Z" fill="#FFE620"/>
<path d="M8.39945 12.8731C7.52115 12.6595 6.84463 11.9711 6.61912 11.0928L6.58351 10.9385L6.54791 11.0928C6.3224 11.9711 5.64587 12.6476 4.76758 12.8731L4.61328 12.9087L4.76758 12.9443C5.64587 13.158 6.3224 13.8464 6.54791 14.7246L6.58351 14.8789L6.61912 14.7246C6.84463 13.8464 7.52115 13.1698 8.39945 12.9443L8.55375 12.9087L8.39945 12.8731Z" fill="#FFE620"/>
<path d="M30.4508 7.73668C29.4301 7.47556 28.623 6.68035 28.3619 5.64776L28.3144 5.46973L28.267 5.64776C28.0058 6.66848 27.2106 7.47556 26.178 7.73668L26 7.78416L26.178 7.83163C27.2106 8.09275 28.0058 8.88796 28.267 9.92055L28.3144 10.0986L28.3619 9.92055C28.623 8.89983 29.4182 8.09275 30.4508 7.83163L30.6289 7.78416L30.4508 7.73668Z" fill="#8C7BFD"/>
<path d="M32.9761 22.4993C32.0503 22.2738 31.3382 21.5498 31.1008 20.624L31.0652 20.4697L31.0296 20.624C30.8041 21.5498 30.0801 22.2619 29.1543 22.4993L29 22.5349L29.1543 22.5705C30.0801 22.796 30.7922 23.52 31.0296 24.4458L31.0652 24.6001L31.1008 24.4458C31.3263 23.52 32.0503 22.8079 32.9761 22.5705L33.1304 22.5349L32.9761 22.4993Z" fill="#5D8EF9"/>
<path d="M25.6902 9.46497C24.2043 9.46497 23 10.6692 23 12.1552C23 13.1411 23.5352 14.0074 24.331 14.4792H26.2395C26.4508 14.4792 26.6621 14.5144 26.8522 14.5848C27.7607 14.1553 28.3875 13.2256 28.3875 12.1552C28.3805 10.6692 27.1762 9.46497 25.6902 9.46497Z" fill="#5D8EF9"/>
<path d="M25.6906 10.3457L24.585 12.0289L25.6906 12.8387L26.7963 12.0289L25.6906 10.3457ZM25.6906 13.1204L24.585 12.2542L25.6906 13.9655L26.7963 12.2542L25.6906 13.1204Z" fill="white"/>
<path d="M20.2455 4C18.1729 4 16.4912 5.68169 16.4912 7.7543C16.4912 9.82691 18.1729 11.5086 20.2455 11.5086C22.3181 11.5086 23.9998 9.82691 23.9998 7.7543C23.9998 5.67431 22.3181 4 20.2455 4Z" fill="#330D84"/>
<path d="M20.2448 4.93701C18.6885 4.93701 17.4272 6.19828 17.4272 7.75458C17.4272 9.31088 18.6885 10.5722 20.2448 10.5722C21.8011 10.5722 23.0624 9.31088 23.0624 7.75458C23.0624 6.19828 21.8011 4.93701 20.2448 4.93701Z" fill="#5932AE"/>
<path d="M20.2455 4C18.1729 4 16.4912 5.68169 16.4912 7.7543C16.4912 9.82691 18.1729 11.5086 20.2455 11.5086C22.3181 11.5086 23.9998 9.82691 23.9998 7.7543C23.9998 5.67431 22.3181 4 20.2455 4Z" fill="#8C7BFD"/>
<path d="M20.2448 4.93701C18.6885 4.93701 17.4272 6.19828 17.4272 7.75458C17.4272 9.31088 18.6885 10.5722 20.2448 10.5722C21.8011 10.5722 23.0624 9.31088 23.0624 7.75458C23.0624 6.19828 21.8011 4.93701 20.2448 4.93701Z" fill="#6857E5"/>
<path d="M20.2435 5.85938L19.0854 7.6222L20.2435 8.47042L21.4015 7.6222L20.2435 5.85938ZM20.2435 8.76546L19.0854 7.85823L20.2435 9.65056L21.4015 7.85823L20.2435 8.76546Z" fill="white"/>
<path d="M15.9599 7.74937C15.9599 7.36214 16.0104 6.99175 16.103 6.63819C15.5475 6.37724 14.9329 6.23413 14.2848 6.23413C11.9193 6.23413 10 8.15343 10 10.5189C10 11.6974 10.4714 12.7581 11.2459 13.5325H17.3321C17.8456 13.0106 18.2328 12.354 18.4264 11.6216C16.9617 10.9398 15.9599 9.45822 15.9599 7.74937Z" fill="#FFE37B"/>
<path d="M15.9602 7.7667C15.4719 7.47207 14.8995 7.29529 14.285 7.29529C12.5088 7.29529 11.0693 8.73476 11.0693 10.511C11.0693 11.8915 11.9448 13.07 13.1654 13.5246H15.3962C16.4737 13.129 17.2818 12.1609 17.4586 10.9992C16.5494 10.2247 15.9686 9.06307 15.9602 7.7667Z" fill="#FFBE1B"/>
<path d="M14.2845 8.35632L12.9629 10.3682L14.2845 11.3363L15.6061 10.3682L14.2845 8.35632ZM14.2845 11.673L12.9629 10.6376L14.2845 12.6832L15.6061 10.6376L14.2845 11.673Z" fill="white"/>
<path fill-rule="evenodd" clip-rule="evenodd" d="M9.87868 14.3484C9 15.2271 9 16.6413 9 19.4697V25.4697C9 28.2982 9 29.7124 9.87868 30.591C10.7574 31.4697 12.1716 31.4697 15 31.4697H25C25.93 31.4697 26.395 31.4697 26.7765 31.3675C27.8117 31.0901 28.6204 30.2815 28.8978 29.2462C29 28.8647 29 28.3997 29 27.4697H23C21.3431 27.4697 20 26.1266 20 24.4697C20 22.8129 21.3431 21.4697 23 21.4697H29V19.4697C29 16.6413 29 15.2271 28.1213 14.3484C27.2426 13.4697 25.8284 13.4697 23 13.4697H15C12.1716 13.4697 10.7574 13.4697 9.87868 14.3484ZM14 17.4697C13.4477 17.4697 13 17.9174 13 18.4697C13 19.022 13.4477 19.4697 14 19.4697H17C17.5523 19.4697 18 19.022 18 18.4697C18 17.9174 17.5523 17.4697 17 17.4697H14Z" fill="#1556EE"/>
</svg>
