<svg width="19" height="19" viewBox="0 0 19 19" fill="none" xmlns="http://www.w3.org/2000/svg">
<path d="M10.8083 3.02029H7.39514C4.98166 3.02029 3.77493 3.02029 3.02516 3.77852C2.27539 4.53675 2.27539 5.7571 2.27539 8.19781V9.92364C2.27539 12.3643 2.27539 13.5847 3.02516 14.3429C3.77493 15.1012 4.98166 15.1012 7.39514 15.1012H10.8083C13.2218 15.1012 14.4285 15.1012 15.1783 14.3429C15.928 13.5847 15.928 12.3643 15.928 9.92364V8.19781C15.928 5.7571 15.928 4.53675 15.1783 3.77852C14.4285 3.02029 13.2218 3.02029 10.8083 3.02029Z" stroke="#747C90" stroke-width="1.2"/>
<path d="M5.30933 6.04051H7.58477" stroke="#747C90" stroke-width="1.2" stroke-linecap="round"/>
<path d="M14.4179 12.0809H12.8872C12.4118 12.0809 12.1741 12.0809 11.9871 12.0017C11.7479 11.9005 11.5576 11.7101 11.4563 11.4709C11.3771 11.284 11.3771 11.0463 11.3771 10.5708C11.3771 10.0954 11.3771 9.85767 11.4563 9.67071C11.5576 9.43156 11.7479 9.2412 11.9871 9.1399C12.1741 9.06072 12.4118 9.06072 12.8872 9.06072H14.4179C14.8933 9.06072 15.131 9.06072 15.318 9.1399C15.5571 9.2412 15.7475 9.43156 15.8488 9.67071C15.928 9.85767 15.928 10.0954 15.928 10.5708C15.928 11.0463 15.928 11.284 15.8488 11.4709C15.7475 11.7101 15.5571 11.9005 15.318 12.0017C15.131 12.0809 14.8933 12.0809 14.4179 12.0809Z" stroke="#747C90" stroke-width="1.2"/>
</svg>
